<?xml version="1.0" standalone="no"?>
<!DOCTYPE svg PUBLIC "-//W3C//DTD SVG 1.1//EN" "http://www.w3.org/Graphics/SVG/1.1/DTD/svg11.dtd" >
<!--
2013-9-30: Created.
-->
<svg>
<metadata>
Created by iconfont
</metadata>
<defs>

<font id="iconfont" horiz-adv-x="1024" >
  <font-face
    font-family="iconfont"
    font-weight="500"
    font-stretch="normal"
    units-per-em="1024"
    ascent="896"
    descent="-128"
  />
    <missing-glyph />
    
    <glyph glyph-name="guangbo" unicode="&#58918;" d="M815.36 102.88c44.8 60.16 67.84 130.56 67.84 203.52s-23.04 143.36-67.84 203.52c-12.8 17.92-39.68 21.76-57.6 8.96-19.2-12.8-23.04-38.4-8.96-56.32 34.56-46.08 52.48-99.84 52.48-156.16s-17.92-110.08-52.48-156.16c-12.8-17.92-8.96-43.52 8.96-56.32 7.68-5.12 15.36-7.68 24.32-7.68C794.88 84.96 807.68 91.36 815.36 102.88zM249.6 306.4c0 56.32 17.92 110.08 51.2 156.16 12.8 17.92 8.96 43.52-8.96 56.32-19.2 12.8-44.8 8.96-57.6-8.96C189.44 449.76 166.4 379.36 166.4 306.4s23.04-144.64 67.84-203.52c7.68-11.52 20.48-16.64 33.28-16.64 8.96 0 16.64 2.56 24.32 7.68 19.2 12.8 23.04 38.4 8.96 56.32C267.52 196.32 249.6 250.08 249.6 306.4zM853.76 663.52c-15.36 16.64-40.96 17.92-58.88 3.84-16.64-15.36-19.2-40.96-3.84-57.6 75.52-84.48 117.76-192 117.76-303.36s-42.24-218.88-117.76-303.36c-15.36-16.64-12.8-42.24 3.84-57.6 7.68-6.4 17.92-10.24 26.88-10.24 11.52 0 23.04 5.12 30.72 14.08 89.6 99.84 138.24 226.56 138.24 357.12C992 436.96 943.36 564.96 853.76 663.52zM128 306.4c0 111.36 42.24 218.88 117.76 303.36 15.36 16.64 12.8 42.24-3.84 57.6s-43.52 12.8-58.88-3.84c-89.6-99.84-138.24-226.56-138.24-357.12s48.64-258.56 138.24-357.12c7.68-8.96 19.2-14.08 30.72-14.08 10.24 0 19.2 3.84 26.88 10.24 16.64 15.36 19.2 40.96 3.84 57.6C170.24 87.52 128 195.04 128 306.4zM518.4 477.92c-101.12 0-184.32-80.64-184.32-179.2 0-51.2 21.76-99.84 61.44-133.12 16.64-15.36 43.52-14.08 58.88 2.56 15.36 16.64 14.08 42.24-3.84 57.6-21.76 19.2-33.28 44.8-33.28 72.96 0 53.76 44.8 98.56 101.12 98.56 55.04 0 101.12-44.8 101.12-98.56s-44.8-98.56-101.12-98.56l-7.68 0c-17.92 0-33.28-10.24-39.68-26.88-5.12-12.8-12.8-25.6-23.04-35.84-16.64-16.64-15.36-42.24 1.28-57.6 7.68-7.68 17.92-11.52 29.44-11.52 10.24 0 21.76 3.84 29.44 12.8 11.52 11.52 21.76 25.6 29.44 39.68 92.16 8.96 165.12 85.76 165.12 179.2C702.72 397.28 619.52 477.92 518.4 477.92z"  horiz-adv-x="1024" />

    
    <glyph glyph-name="list" unicode="&#58948;" d="M212.51051-202.272451l802.27206 0L1014.782569-59.00856l-802.27206 0L212.51051-202.272451zM212.51051 227.516152l802.27206 0 0 143.262868-802.27206 0L212.51051 227.516152zM212.51051 800.567623l0-143.262868 802.27206 0 0 143.262868L212.51051 800.567623zM11.943518-202.272451l100.285031 0L112.228549-59.00856 11.943518-59.00856 11.943518-202.272451zM11.943518 227.516152l100.285031 0 0 143.262868L11.943518 370.77902 11.943518 227.516152zM11.943518 657.303732l100.285031 0 0 143.262868L11.943518 800.5666 11.943518 657.303732z"  horiz-adv-x="1024" />

    
    <glyph glyph-name="list1" unicode="&#59029;" d="M128.952442 733.490789c-35.902698 0-64.99734-28.940123-64.99734-64.617693 0-35.677571 29.094642-64.60746 64.99734-64.60746s65.00041 28.92989 65.00041 64.60746C193.951829 704.549643 164.85514 733.490789 128.952442 733.490789L128.952442 733.490789zM933.280324 737.197204 294.242999 737.197204c-14.795984 0-26.761504-11.916401-26.761504-26.601868l0-73.653487c0-14.700817 11.961426-26.601868 26.761504-26.601868l639.038348 0c14.781658 0 26.762527 11.900028 26.762527 26.601868l0 73.653487C960.043874 725.281827 948.063005 737.197204 933.280324 737.197204L933.280324 737.197204zM933.280324 455.243601 294.242999 455.243601c-14.795984 0-26.761504-11.906168-26.761504-26.612101l0-73.646324c0-14.691607 11.961426-26.601868 26.761504-26.601868l639.038348 0c14.781658 0 26.762527 11.910261 26.762527 26.601868L960.043874 428.632523C960.043874 443.338457 948.063005 455.243601 933.280324 455.243601L933.280324 455.243601zM933.280324 173.292044 294.242999 173.292044c-14.795984 0-26.761504-11.905144-26.761504-26.590612l0-73.658603c0-14.685467 11.961426-26.611078 26.761504-26.611078l639.038348 0c14.781658 0 26.762527 11.92561 26.762527 26.611078l0 73.658603C960.043874 161.3869 948.063005 173.292044 933.280324 173.292044L933.280324 173.292044zM128.952442 451.537186c-35.902698 0-64.99734-28.930913-64.99734-64.617693 0-35.671431 29.094642-64.602344 64.99734-64.602344s65.00041 28.92989 65.00041 64.602344C193.951829 422.606273 164.85514 451.537186 128.952442 451.537186L128.952442 451.537186zM128.952442 169.581536c-35.902698 0-64.99734-28.92989-64.99734-64.608483s29.094642-64.60439 64.99734-64.60439 65.00041 28.92682 65.00041 64.60439S164.85514 169.581536 128.952442 169.581536L128.952442 169.581536zM128.952442 169.581536"  horiz-adv-x="1024" />

    
    <glyph glyph-name="livesvg06" unicode="&#58889;" d="M858.246579 455.634172c-24.669385-3.764628-39.993635-20.41757-34.235969-37.159092l-0.132869-0.04429c13.331212-37.956307 19.930383-77.152727 19.797514-116.260567 0.132869-39.417868-6.86491-78.924316-20.240411-117.54497-5.934825-16.697232 9.743743-33.261595 34.545997-37.247671 3.498889-0.531477 6.997779-0.797215 10.496668-0.797215 20.816178 0 39.816476 9.699453 44.821217 23.960749 14.881353 43.226786 22.366319 87.383657 22.587767 131.584817-0.132869 43.891132-7.617835 87.605105-22.366319 130.388994C907.629639 449.345029 882.960254 459.575959 858.246579 455.634172L858.246579 455.634172zM1189.578122 719.82247c-10.895276 15.589988-38.443494 22.14487-61.297 14.837063-22.986375-7.219228-32.774407-25.688049-21.967711-41.189458l-0.221449 0c86.89647-124.055561 130.167545-257.633417 130.167545-391.56559 0-133.932173-43.271076-267.642898-130.167545-391.654169-10.895276-15.501409-1.018664-33.97023 22.18916-41.278038 6.377723-1.948749 12.932604-2.878833 19.354616-2.878833 17.361578-0.04429 33.97023 6.599171 41.898094 17.804475C1282.099389 16.235663 1328.692195 158.981495 1328.692195 301.904485 1328.692195 444.650317 1282.055099 587.440438 1189.578122 719.82247L1189.578122 719.82247zM1067.958497 551.078561c-8.45934 16.210045-34.678866 24.669385-58.551036 19.044588-23.91646-5.491928-36.716194-23.163534-28.345434-39.284999 37.823438-73.299519 56.646577-150.762274 56.646577-228.402188-0.04429-77.994232-19.266037-156.077043-57.266634-230.173778-8.326471-16.077176 4.428974-33.837361 28.522592-39.329289 4.960451-1.151533 10.009481-1.68301 14.969932-1.68301 19.221747 0 37.159092 8.016443 43.802553 20.904757 41.056589 80.607327 62.094215 165.377889 62.049926 250.28132C1129.831263 386.719337 1109.502273 471.091291 1067.958497 551.078561L1067.958497 551.078561zM644.947192 795.469346c-65.327366-41.853804-232.299685-184.289607-328.452711-267.554318L34.147389 527.915027C15.32425 527.870738 0 512.546488 0 493.679059l0-392.938572c0-18.867429 15.32425-34.147389 34.147389-34.147389L322.872203 66.593097c96.950241-83.929057 258.209183-221.094381 322.074988-262.062391 81.404542-52.217603 91.85692 35.963269 91.85692 35.963269L736.804112 289.591937l0 20.816178L736.804112 759.506077C736.804112 759.506077 726.396023 847.686949 644.947192 795.469346L644.947192 795.469346zM644.947192 795.469346"  horiz-adv-x="1329" />

    
    <glyph glyph-name="guangbo4" unicode="&#59084;" d="M774.628466 593.63976c-12.675694 11.184737-72.327282-29.825282-37.282115-65.61644 182.681646-155.093311 185.66356-300.491819 0-460.059024-27.588335-26.097378 9.69378-76.055187 37.282115-65.61644C1027.399423 120.160075 1016.960677 484.031387 774.628466 593.63976zM728.398562 152.967272c91.713818 74.564229 85.747943 216.980823 0 281.105283-33.553187 20.132526-55.177694-46.974871-55.177694-46.974871s85.747943-108.117416 0-187.155541C656.07128 177.573693 688.133509 132.089779 728.398562 152.967272zM562.866505-87.873981c0-96.187713-73.818239-46.974871-73.818239-46.974871L169.914878 133.580736 120.703059 133.580736c-30.571273 0-55.177694 25.351388-55.177694 56.668651L65.525366 415.432009c0 31.317263 24.606421 55.92266 55.177694 55.92266l58.905598 0L489.048265 734.565397c0 0 73.818239 49.957809 73.818239-46.974871L562.866505-87.873981z"  horiz-adv-x="1024" />

    
    <glyph glyph-name="xinyong" unicode="&#58913;" d="M533.604552 168.391567l91.989087 0 0-22.00313-91.989087 0L533.604552 168.391567zM959.393052 299.830131c0-246.924809-200.175065-447.091688-447.118294-447.091688-246.932995 0-447.108061 200.165856-447.108061 447.091688 0 246.919692 200.175065 447.099874 447.108061 447.099874C759.217986 746.930005 959.393052 546.750847 959.393052 299.830131zM438.111664 480.366927c0-4.999874 0.664126-9.497305 1.9934-13.496385 1.328251-4.335748 3.829212-8.003278 7.500834-11.001565 4.335748-3.334955 10.332323-4.999874 17.998933-4.999874l211.984019 0c7.335059 0 12.999059 1.664919 17.002232 4.999874 3.330862 2.330068 5.996574 5.826705 7.998161 10.499122 1.329275 3.999081 2.00261 8.66331 2.00261 13.999852 0 5.000897-0.673335 9.498328-2.00261 13.501502-1.337461 4.327562-3.837398 7.998161-7.499811 10.997472-4.335748 2.998287-10.166547 4.501524-17.501606 4.501524L465.603809 509.368448c-7.334036 0-13.174044-1.503237-17.491373-4.501524-3.340071-2.334161-6.005784-5.834892-8.007371-10.499122C438.77579 490.367699 438.111664 485.695283 438.111664 480.366927zM425.610956 311.378142c-1.337461 2.329045-2.674922 5.161556-4.004197 8.501628-1.9934 6.324032-2.998287 13.326517-2.998287 20.99722 0 7.325849 0.830925 13.999852 2.499937 19.996426-7.334036 1.328251-13.505595 3.829212-18.505469 7.500834-5.332449 4.327562-9.493212 10.166547-12.492522 17.500583-2.001587 6.997368-3.173273 14.663978-3.504824 22.99983 0.332575 8.326643 1.503237 15.826454 3.504824 22.496363 2.324952 7.002484 6.494924 12.662391 12.492522 16.998139 6.329149 4.327562 15.175631 6.665817 26.504654 7.001461-0.332575 1.328251-0.839111 2.828418-1.503237 4.497431-1.9934 6.329149-2.989077 13.326517-2.989077 21.001313 0 7.325849 0.9967 14.161534 2.989077 20.494777 1.328251 4.331655 3.505847 8.16496 6.503111 11.499915-0.331551 0.327458-0.839111 0.830925-1.503237 1.503237-6.993275 5.323239-14.33652 9.16166-21.99392 11.494799-9.336646 2.329045-18.339694 3.00238-26.993794 2.001587-7.343245-1.000793-14.33652-3.999081-21.00643-8.998955-7.334036-5.336542-12.666484-14.33652-15.997346-26.998911-5.341658-19.336394-13.174044-41.832757-23.497157-67.494207l0-1.499144c-11.005658-23.335475-22.99983-49.171909-35.997865-77.499072-6.005784-11.333116-8.505721-21.49557-7.500834-30.495548 1.004887-7.338129 3.663436-13.676487 7.998161-18.999726 5.332449-7.002484 11.504008-12.500709 18.497283-16.495696 5.332449-2.343371 10.664897-4.501524 15.997346-6.503111l0-152.49002c0-12.325723 2.674922-22.500457 8.007371-30.499641 4.999874-6.329149 11.154038-10.996448 18.497283-13.995759 7.325849-2.334161 15.498996-3.505847 24.493857-3.505847 9.336646 0 17.501606 1.171686 24.503067 3.505847 7.998161 2.99931 14.502295 7.66661 19.503193 13.995759 1.328251 2.334161 2.823302 5.000897 4.493338 7.998161-0.331551 1.337461-0.664126 2.674922-0.9967 4.003174-2.343371 8.331759-3.339048 17.169031-3.006474 26.496467l0 56.497759c-0.332575 11.328 1.004887 21.164019 4.003174 29.493731 0.9967 2.334161 2.324952 4.834098 4.004197 7.499811l0 15.000646c-3.339048 3.330862-5.996574 7.66661-8.007371 12.999059-1.9934 6.329149-2.990101 13.33061-2.990101 20.99722 0 7.335059 0.9967 14.161534 2.990101 20.499893 1.328251 4.999874 4.003174 9.327436 8.007371 12.999059L425.611979 311.378142zM430.104293 256.882993c1.328251-4.335748 3.829212-7.998161 7.499811-10.997472 2.324952-1.337461 5.507434-2.840698 9.502421-4.501524 1.328251 0.9967 3.164063 1.660826 5.498224 2.001587 8.330736 2.324952 17.169031 3.321652 26.504654 2.99931l196.486046 0c8.994861 0.322341 17.823947-0.839111 26.496467-3.505847 1.329275 1.004887 2.823302 2.001587 4.501524 3.006474 3.321652 2.324952 5.996574 5.821589 7.998161 10.499122 1.328251 3.994987 2.001587 8.66331 2.001587 13.995759 0 4.999874-0.673335 9.501398-2.001587 13.496385-1.338485 4.327562-3.837398 7.998161-7.500834 11.005658-4.334725 2.998287-10.174734 4.493338-17.500583 4.493338l-233.978962 0c-7.342222 0-13.18223-1.49505-17.500583-4.493338-3.339048-2.342348-6.005784-5.838985-8.007371-10.498098-1.329275-4.004197-1.9934-8.671497-1.9934-14.003945C428.110893 265.379505 428.775019 260.876957 430.104293 256.882993zM434.107467 326.877137c1.329275-4.335748 3.829212-7.998161 7.500834-10.996448 1.328251-1.001817 2.832512-2.00261 4.493338-3.003404 3.006474 0.327458 6.17156 0.664126 9.510608 1.000793l233.978962 0c2.998287 0 5.829775-0.336668 8.496511-1.000793 1.329275 1.000793 2.833535 2.001587 4.501524 3.003404 3.330862 2.324952 5.996574 5.825682 7.998161 10.498098 1.329275 3.999081 2.00261 8.66331 2.00261 13.999852 0 4.995781-0.673335 9.497305-2.00261 13.496385-1.337461 4.327562-3.837398 7.998161-7.499811 11.001565-4.335748 2.998287-10.166547 4.497431-17.492396 4.497431L459.607234 369.37402c-7.334036 0-13.174044-1.499144-17.501606-4.497431-3.329838-2.338255-6.005784-5.840008-7.998161-10.503215-1.337461-3.999081-2.001587-8.671497-2.001587-13.994736C432.10588 335.377742 432.771029 330.876218 434.107467 326.877137zM723.089138 184.887262c-0.332575 8.330736-1.50426 15.82236-3.497661 22.500457-2.001587 3.994987-4.834098 8.16496-8.505721 12.500709-4.335748 4.327562-9.335622 7.491625-14.991436 9.493212-7.002484 1.328251-13.837146 2.001587-20.49887 2.001587L479.109404 231.383226c-6.346545 0.331551-13.007245-0.331551-20.00052-2.001587-5.996574-2.001587-11.171434-5.332449-15.507182-9.999748-3.330862-3.994987-5.996574-8.16496-7.989975-12.501732-2.343371-5.995551-3.340071-13.33061-3.007497-21.992897l0-56.497759c-0.332575-6.329149 0.332575-13.164834 2.00261-20.49887 1.328251-5.323239 4.501524-10.324136 9.502421-15.000646 4.327562-3.321652 8.496511-6.16235 12.500709-8.496511 6.329149-2.001587 13.82896-3.165086 22.500457-3.496637l196.486046 0c8.322549 0 15.82236 1.171686 22.491247 3.496637 4.004197 1.337461 8.16496 4.003174 12.500709 7.998161 4.327562 4.335748 7.66661 9.501398 10.000771 15.498996 1.328251 7.002484 2.167363 13.83817 2.499937 20.49887L723.089138 184.887262zM744.584708 407.872846c-0.332575 6.000668-1.171686 11.323906-2.499937 15.997346-1.992377 4.999874-4.991688 9.165754-8.994861 12.500709-4.335748 3.325745-10.839883 4.999874-19.503193 4.999874l-12.999059 0c-6.329149-3.334955-13.995759-4.999874-22.99983-4.999874L465.603809 436.370901c-9.327436 0-17.168008 1.664919-23.497157 4.999874l-10.498098 0c-8.339946 0-15.000646-1.674129-20.00052-4.999874-4.004197-3.334955-6.993275-7.334036-9.004071-11.998265-1.328251-4.335748-2.168386-9.502421-2.491751-15.498996 0.323365-6.001691 1.162476-11.338233 2.491751-16.001439 2.010797-4.999874 4.999874-9.169847 9.004071-12.495592 4.335748-3.339048 10.507308-5.174859 18.497283-5.503341 1.004887 1.001817 2.001587 1.831718 3.006474 2.499937 6.329149 4.327562 15.158235 6.500041 26.496467 6.500041l225.987964 0c10.997472 0 19.659759-2.334161 25.997094-6.997368 0.323365-0.336668 0.997724-1.000793 1.9934-2.00261 8.330736 0 14.83487 1.831718 19.503193 5.503341 4.003174 3.325745 7.002484 7.325849 8.994861 11.998265C743.413022 396.700389 744.252133 401.871155 744.584708 407.872846z"  horiz-adv-x="1024" />

    
    <glyph glyph-name="icon" unicode="&#58911;" d="M124.25342 137.010859c33.799804 0 61.185524-27.366278 61.185524-61.186548 0-33.779338-27.386744-61.185524-61.185524-61.185524s-61.185524 27.406187-61.185524 61.185524C63.067896 109.643558 90.45464 137.010859 124.25342 137.010859zM267.021008 55.428795l0 20.395516 693.441399 0 0-20.395516L267.021008 55.428795zM267.021008 75.824311l0 20.396539 693.441399 0 0-20.396539L267.021008 75.824311zM124.25342 361.359486c33.799804 0 61.185524-27.386744 61.185524-61.186548 0-33.779338-27.386744-61.185524-61.185524-61.185524s-61.185524 27.406187-61.185524 61.185524C63.067896 333.972742 90.45464 361.359486 124.25342 361.359486zM267.021008 279.777423l0 20.395516 693.441399 0 0-20.395516L267.021008 279.777423zM267.021008 300.172939l0 20.395516 693.441399 0 0-20.395516L267.021008 300.172939zM124.25342 585.708114c33.799804 0 61.185524-27.386744 61.185524-61.186548 0-33.779338-27.386744-61.185524-61.185524-61.185524s-61.185524 27.406187-61.185524 61.185524C63.067896 558.32137 90.45464 585.708114 124.25342 585.708114zM267.021008 504.126051l0 20.395516 693.441399 0 0-20.395516L267.021008 504.126051zM267.021008 524.521566l0 20.395516 693.441399 0 0-20.395516L267.021008 524.521566z"  horiz-adv-x="1024" />

    
    <glyph glyph-name="zhongguo" unicode="&#58914;" d="M828.823-47.837h63.619v64.263h-63.619v-64.263zM510.741-112.091h127.23v-64.268h-127.23v64.268zM1008.606 646.126l-123.609 106.174c-9.098 7.766-21.691 9.837-32.765 5.203l-95.677-39.911-77.1-48.831c-10.186-6.556-15.85-18.329-14.575-30.402l9.609-94.608-89.001-61.763-104.905-12.524-83.851 46.016-52.098 102.629c-7.891 15.553-26.654 21.852-42.239 14.204l-113.053-55.718c-10.939-5.398-17.875-16.587-17.875-28.87v-42.147l-37.728-37.149h-42.878c-8.204 0-16.159-3.21-22.074-9.001l-57.257-55.716c-12.974-12.658-12.974-33.612 0-46.27l50.198-48.849 28.818-137.906c1.524-7.276 5.474-13.829 11.262-18.449l104.391-84.514c5.661-4.56 12.665-7.063 19.914-7.063h115.024v-69.921c0-17.743 14.246-32.14 31.802-32.14h128.062l57.959-39.851c10.052-6.931 23.090-7.439 33.653-1.349l78.75 45.443 108.661 41.321c5.788 2.189 10.746 6.103 14.444 11.113l68.384 94.862c3.947 5.534 6.109 12.148 6.109 18.899v93.573c0 8.684-3.498 16.976-9.605 23.007l-39.95 39.204 50.571 33.67c4.708 3.091 8.463 7.394 11.010 12.465l35.498 71.541 89.765 63.11c8.522 6.029 13.615 15.852 13.615 26.353v129.687c0 9.431-4.138 18.385-11.262 24.475v0zM956.243 508.805l-82.762-58.314c-4.319-3.075-7.884-7.185-10.238-11.954l-35.249-71.060-76.719-50.845c-16.992-11.306-19.281-35.531-4.709-49.867l58.716-57.712v-69.532l-56.685-78.682-104.261-40.091-65.907-37.659-49.687 34.18c-5.28 3.675-11.513 5.593-17.939 5.593h-106.114v69.923c0 17.743-14.249 32.14-31.81 32.14h-135.626l-86.841 70.252-28.431 136.362c-1.342 6.315-4.454 12.090-9.103 16.528l-33.395 32.577 29.198 23.591h38.107c8.271 0 16.286 3.267 22.209 9.12l56.549 55.716c6.045 5.985 9.545 14.266 9.545 22.949l-5.284 10.079 72.521 58.554 42.309-83.347c2.926-5.728 7.505-10.467 13.105-13.557l101.405-55.733c5.789-3.089 12.404-4.364 18.961-3.583l122.647 14.695c5.090 0.646 9.989 2.462 14.249 5.414l111.073 76.985c9.613 6.691 14.826 18.058 13.617 29.759l-9.539 93.766 55.601 35.666 72.778 29.952 97.711-83.93v-97.936h-0.001zM956.243 508.805z"  horiz-adv-x="1024" />

    
    <glyph glyph-name="zhongqingdianxinicon08" unicode="&#58921;" d="M888.351042 526.759537l-318.522474 0 125.685537 150.747329c1.994424-0.318248 3.707438-1.115404 5.822612-1.115404 20.676925 0 37.403888 16.706497 37.403888 37.402865 0 20.596084-16.726963 37.362956-37.403888 37.362956-20.657482 0-37.402865-16.766872-37.402865-37.362956 0-4.505617 1.055029-8.691963 2.551102-12.68081l-145.345296-174.355003-13.716396 0-145.265478 174.355003c1.436722 3.987824 2.512217 8.17417 2.512217 12.68081 0 20.596084-16.708544 37.362956-37.402865 37.362956-20.634969 0-37.402865-16.766872-37.402865-37.362956 0-20.696368 16.767895-37.402865 37.402865-37.402865 2.092661 0 3.868097 0.797156 5.782703 1.115404l125.724423-150.747329-318.522474 0c-41.311895 0-74.827219-33.494858-74.827219-74.825173l0-523.68104c0-41.309848 33.515325-74.80573 74.827219-74.80573l748.097206 0c41.333384 0 74.827219 33.494858 74.827219 74.80573L963.176215 451.933341C963.178261 493.263655 929.683403 526.759537 888.351042 526.759537M738.741629 3.058031c0-41.309848-33.495882-74.80573-74.806753-74.80573L215.059566-71.747699c-41.310871 0-74.80573 33.494858-74.80573 74.80573l0 374.068558c0 41.311895 33.493835 74.807776 74.80573 74.807776l448.875311 0c41.309848 0 74.806753-33.494858 74.806753-74.807776L738.741629 3.058031zM850.948177 115.288115c-41.309848 0-74.806753 33.494858-74.806753 74.825173 0 41.311895 33.495882 74.80573 74.806753 74.80573 41.310871 0 74.827219-33.492812 74.827219-74.80573C925.775396 148.782973 892.259048 115.288115 850.948177 115.288115M850.948177 302.282996c-41.309848 0-74.806753 33.533744-74.806753 74.80573 0 41.349757 33.495882 74.825173 74.806753 74.825173 41.310871 0 74.827219-33.475416 74.827219-74.825173C925.775396 335.81674 892.259048 302.282996 850.948177 302.282996"  horiz-adv-x="1024" />

    
    <glyph glyph-name="xinyong1" unicode="&#59010;" d="M853.333333-212 170.666667-212C76.416-212 0-135.584 0-41.333333L0 641.333333C0 735.584 76.416 812 170.666667 812L853.333333 812C947.584 812 1024 735.584 1024 641.333333L1024-41.333333C1024-135.584 947.584-212 853.333333-212ZM298.666667 428 213.333333 428 213.333333 44 298.666667 44 298.666667 428ZM810.666667 86.666667 725.333333 86.666667 725.333333 129.333333 810.666667 129.333333 810.666667 214.666667 725.333333 214.666667 725.333333 257.333333 810.666667 257.333333 810.666667 342.666667 725.333333 342.666667 725.333333 385.333333 810.666667 385.333333 810.666667 470.666667 640 470.666667 682.666667 556 682.666667 641.333333 554.666667 684 554.666667 598.666667 469.333333 513.333333 341.333333 428 341.333333 44 469.333333 1.333333 512 1.333333 725.333333 1.333333 810.666667 1.333333 810.666667 86.666667Z"  horiz-adv-x="1024" />

    
    <glyph glyph-name="meiti" unicode="&#58886;" d="M900.914 802.449c-75.449 76.533-311.469-34.092-527.262-246.875-215.711-212.783-358.341-435.436-253.918-523.81 102.78-86.765 311.387 34.033 527.26 246.815 215.633 212.862 329.449 447.317 253.92 523.869zM746.644 539.2l-90.659-201.224c-5.86-14.77-15.93-23.758-30.339-26.969-14.648-4.011-24.64 0-30.019 12.041l-83.838 148.651-58.913-16.213-1.684-172.249c-1.045-16.936-11.437-28.171-31.144-33.872-19.705-4.091-29.778 2.090-30.42 18.702l1.766 172.247-59.075-15.409c-17.096-3.693-26.164 2.005-26.847 17.175 1.766 15.412 10.996 25.604 27.733 30.579l202.187 52.976c12.724 2.568 20.988-0.161 24.761-7.705 1.165-1.204 2.689-1.606 3.651-2.97l63.49-115.020 63.007 146.243c7.024 12.841 16.375 20.788 28.333 23.759 19.262 3.129 29.616-2.57 30.98-17.176 0.001-4.575-0.962-8.99-2.969-13.565zM252.214 508.539v0c46.916 54.34 115.539 128.744 198.653 190.869 0 0 23.8 20.146-0.722 38.367-127.46 82.21-250.064 115.28-299.908 64.673-48.44-49.102-18.060-163.801 66.496-295.676 4.658-4.736 19.347-16.534 35.48 1.767zM840.957 373.293c-19.866 15.73-37.723-0.402-37.723-0.402v0c-41.378-51.208-113.575-136.771-205.961-214.548 0 0-29.098-21.511 0-45.594 142.951-104.502 261.785-142.144 334.143-80.986 74.445 63.010 23.154 194.324-90.459 341.532z"  horiz-adv-x="1024" />

    
    <glyph glyph-name="broadcast" unicode="&#58906;" d="M653.498 831.945h10.946c42.083-6.345 29.709-69.822 29.709-125.106v-647.413c0-54.368 11.695-115.040-26.585-121.977-23.251-4.209-43.091 15.009-59.425 26.585-101.228 71.744-195.198 137.016-297.121 209.552-14.398 10.246-38.739 24.097-39.096 45.349-0.308 18.142 14.657 35.556 34.402 35.967 16.97 0.353 31.147-14.696 43.789-23.456 89.916-62.337 191.879-130.4 278.357-190.783v684.939c-89.011-60.172-178.565-129.017-270.54-197.036-13.395-9.91-29.050-23.497-40.655-26.587-27.285-7.264-61.418-1.564-92.263-1.564h-92.267c-3.648-73.498-0.519-153.774-1.561-229.879 41.565 1.637 78.506 2.996 79.752-32.839 0.313-9.029-4.365-25.983-18.768-32.838-18.842-8.971-102.324-5.504-114.155 3.129-7.45 5.432-11.020 15.562-14.075 25.021l-0 303.38c6.184 43.603 78.916 31.274 125.106 31.274 29.978 0 79.165-6.914 106.338 0 12.495 3.183 29.797 22.092 43.784 32.843 77.286 59.375 147.754 109.363 222.066 165.761 26.287 19.952 63.418 53.136 92.262 65.677v0zM960.006 608.323v-10.951c-12.52-26.449-42.616-31.264-75.064-43.784-21.936-8.463-42.909-23.31-64.117-20.328-14.31 2.009-27.226 16.807-26.585 31.274 1.129 25.485 37.927 32.922 60.988 42.225 36.285 14.638 89.1 46.953 104.773 1.564l0.005-0zM960.006 406.59v-12.51c-7.822-34.458-46.117-26.587-86.010-26.587-22.992 0-44.689-3.637-59.423 1.564-32.101 11.338-22.43 56.403 1.565 64.118 13.044 4.194 33.753 1.564 59.423 1.564 44.054 0 77.741 5.881 84.445-28.149v0zM960.006 182.967v-15.639c-12.090-57.953-70.956-15.518-100.085 0-22.293 11.875-51.416 20.269-60.988 40.66-12.066 25.69 2.498 58.446 26.585 59.42 19.13 0.777 45.858-18.666 60.988-26.582 33.294-17.427 61.756-25.157 73.5-57.859v0zM960.006 182.967z"  horiz-adv-x="1025" />

    
    <glyph glyph-name="cha" unicode="&#59608;" d="M959.69595 757.018645 549.373701 757.018645 549.373701 831.623807l-74.603115 0 0-74.604138L64.449359 757.019669l0-74.603115 261.112949 0c-68.194148-77.335343-139.226948-126.039601-261.260306-177.913039l26.956955-59.394738c149.864216 65.9879 230.078119 131.703601 308.906465 237.307777l74.604138 0 0-223.812415L288.260751 458.604138c-64.404846 0-111.905696-48.703235-111.905696-111.905696l0-149.208277c0-65.058738 47.50085-111.904673 111.905696-111.904673l410.321226 0c64.331167 0 149.208277 46.845934 149.208277 111.904673l0 149.208277c0 63.203484-47.573505 111.905696-111.905696 111.905696L549.373701 458.604138 549.373701 682.41553l74.604138 0 335.717088-261.113973 0 74.604138L698.581977 682.41553l261.113973 0L959.69595 757.018645zM735.811904 272.092257c0 0-97.407494-148.989289-225.851864-148.989289-137.187499 0-221.698265 148.989289-221.698265 148.989289s85.313038 148.990313 221.698265 148.990313C639.204635 421.08257 735.811904 272.092257 735.811904 272.092257zM101.750917 10.979308l820.643476 0 0-74.603115-820.643476 0 0 74.603115ZM400.240125 272.092257c0-61.489446 50.049906-111.358227 111.833041-111.358227 61.708434 0 111.759363 49.868781 111.759363 111.358227 0 61.491493-50.050929 111.323435-111.759363 111.323435C450.290031 383.416715 400.240125 333.58375 400.240125 272.092257zM453.424418 294.459684l58.648748-22.366404-17.413602 57.447387c5.53711 1.530866 11.364839 2.367931 17.413602 2.367931 34.970466 0 63.237253-26.810622 63.237253-59.815317 0-33.039487-28.266787-59.813271-63.237253-59.813271-34.972513 0-63.311954 26.773783-63.311954 59.813271C448.761212 279.998321 450.437387 287.538041 453.424418 294.459684z"  horiz-adv-x="1024" />

    
    <glyph glyph-name="dianshi" unicode="&#58975;" d="M699.128423 830.343671c-10.873652-0.835018-19.123546-5.077645-25.474185-12.731976l-175.799912-202.549136-115.267257 141.398404c-6.375198 7.65433-14.600533 11.901051-25.486464 12.725836-9.484002 0.886183-17.989723-1.839905-26.114774-8.270361-7.17133-6.334265-12.490475-13.186324-13.376659-22.928199-0.918929-9.001001 1.471514-17.821901 8.28264-25.480324l111.462604-138.205689c0.405229 0.073678 0.841158 0 1.25662 0l59.243289 0 59.231009 0c0.460488 0 0.23536 0.073678 0.64059 0l172.601056 199.346187c6.845918 7.676843 9.213849 16.47523 8.292873 25.480324-0.896416 9.758248-5.577019 16.575514-12.738116 22.938432C717.736223 828.481254 708.622658 831.223715 699.128423 830.343671zM175.911964 538.912206c-42.847877-0.970094-70.75753-32.573883-70.75753-70.747297l0-459.920878c0-61.61122 29.774117-70.747297 70.75753-70.747297l672.185282 0c41.007973 0 70.747297 29.626761 70.747297 70.747297L918.844543 468.164909c0 41.11849-29.739325 70.747297-70.747297 70.747297L175.911964 538.912206zM246.669494 432.78512l389.153114 0c28.022217 0 35.385928-8.601912 35.385928-35.379789l0-318.393537c-2.470261-21.714558-10.122545-35.373649-35.385928-35.373649L246.669494 43.638146c-28.054963 0-35.383882 8.573259-35.383882 35.373649L211.285612 397.407378C211.285612 424.183208 218.614531 432.78512 246.669494 432.78512zM795.024493 432.78512c14.633279-0.016373 26.517957-4.954849 36.484959-14.919804 10.908444-10.937097 16.585747-23.511483 16.585747-38.138622 0-14.696724-5.679349-27.293623-16.585747-37.60241-9.3039-9.993608-20.828374-14.846126-34.82311-15.476483l-2.212388 0c-14.633279 0.62831-27.361161 5.482875-37.59627 15.476483-10.233062 10.31902-14.925944 22.905686-14.925944 37.60241 0 14.627139 4.690836 27.203572 14.925944 38.138622C767.430018 427.830272 780.401448 432.78512 795.024493 432.78512zM795.024493 255.902551c14.668071 0 26.743084-4.668323 37.045731-14.925944 10.5728-10.56052 16.027022-23.499204 16.027022-38.134529 0-14.588253-5.454222-26.820855-16.027022-37.045731-10.302647-10.650571-22.37766-16.035208-37.045731-16.035208-14.678304 0-27.193339 5.386684-38.146808 16.035208-9.999748 10.257621-14.925944 22.457478-14.925944 37.045731 0 14.633279 4.926196 27.561729 14.925944 38.134529C767.833201 251.25674 780.346189 255.902551 795.024493 255.902551z"  horiz-adv-x="1024" />

    
    <glyph glyph-name="baozhi" unicode="&#58880;" d="M946.66717 352.923625 823.334707 746.517164 194.144542 613.089441 223.700547 515.299204 76.042155 476.256087c0 0 68.84238-219.784773 114.210239-364.524053 45.367858-144.73928 155.0778-76.01853 155.0778-76.01853s475.571921 200.08077 547.819931 230.488181C961.141098 294.663024 946.66717 352.923625 946.66717 352.923625L946.66717 352.923625zM240.242179 135.936334 146.344091 435.388526l94.871125 21.893337 115.548165-387.268797 40.502673 24.569189C268.460257 25.618244 240.242179 135.936334 240.242179 135.936334L240.242179 135.936334zM875.027307 298.311914c0 0-90.370828-35.150968-195.580473-78.329493l-67.504454 215.284476-221.122699-69.08564 74.680603-238.150849c-22.014966-10.21689-41.840599-19.704003-58.382231-28.218078l-115.669795 369.02435 0 0-32.353486 103.141941 548.914598 126.373203c0 0 85.262383-271.842262 102.047274-325.480936C926.963167 319.353842 875.027307 298.311914 875.027307 298.311914L875.027307 298.311914zM875.027307 298.311914M841.214266 494.135646l-183.539138-58.260601L672.027426 390.020668l182.5661 61.544601L841.214266 494.135646zM841.214266 494.135646M681.271279 360.829552l14.352298-45.854377 180.863285 66.774676-13.379261 42.570377L681.271279 360.829552zM681.271279 360.829552M428.038354 565.653878l11.554816-36.853783c6.081482-19.217484 12.041335-36.124005 18.974225-52.422378l-0.364889-0.12163c-10.46015 12.649483-22.866374 26.515263-34.907709 37.82682l-42.327117 40.016154-36.002376-8.878964 40.867561-130.630241 27.974819 8.270816-12.162965 38.921487c-6.568001 21.163559-12.771113 39.286376-19.095855 56.192897l0.729778 0.243259c11.068298-13.500891 25.177337-27.73156 37.461931-39.286376l43.300154-41.35408 30.164153 9.000594-39.408006 125.643426L428.038354 565.653878 428.038354 565.653878zM428.038354 565.653878M539.329481 484.770163l-9.243853 29.312745 44.151562 12.162965-6.93289 22.379855-44.273192-11.798076-8.027557 25.663856 47.070673 12.041335-7.05452 22.501485L479.852584 578.424991l39.043117-124.670388 76.626678 22.623114-7.05452 22.501485L539.329481 484.770163zM539.329481 484.770163M655.607424 549.477135c-0.973037 12.649483-2.797482 24.2043-4.986816 37.94845l0.364889 0c5.473334-13.014372 10.825039-23.474522 16.541632-34.786079l25.055707-47.678822 26.393633 7.784297-8.635705 122.237795-24.569189-6.081482 5.959853-49.381637c2.189334-14.473928 4.013778-28.704597 6.446371-42.083858l-0.243259-0.12163c-5.716593 12.406224-11.311557 24.447559-18.001188 37.340302l-24.08267 46.827414-26.758522-6.568001 5.594964-50.719563c1.824445-15.568595 3.648889-30.529041 5.838223-43.908303l-0.364889-0.12163c-5.594964 11.433187-12.771113 26.150374-19.825632 39.772895l-23.961041 46.827414-28.096449-6.93289 65.071861-112.629053 27.974819 8.270816L655.607424 549.477135 655.607424 549.477135zM655.607424 549.477135M767.628329 578.66825c13.62252-1.337926 19.704003-3.892149 21.771707-10.946668 2.310963-7.297779-1.702815-13.62252-12.162965-16.663262-9.730372-2.797482-20.67704-2.067704-27.853189-0.243259l1.946074-22.501485c6.93289-1.824445 19.582373-1.946074 31.258819 1.459556 27.366671 8.149186 35.029338 27.60993 29.191115 46.219266-4.865186 15.690224-16.176743 23.717781-36.124005 26.272004-14.960447 2.067704-21.650077 3.648889-23.839411 10.825039-1.824445 5.716593 1.459556 12.162965 11.433187 14.717187 9.730372 2.432593 18.001188 1.216296 22.623114 0l-1.216296 21.406818c-6.93289 1.702815-15.933484 2.067704-27.4883-0.729778-24.08267-5.838223-34.54282-24.325929-28.461337-43.665043C733.815287 588.155363 748.532474 580.735954 767.628329 578.66825L767.628329 578.66825zM767.628329 578.66825"  horiz-adv-x="1024" />

    
    <glyph glyph-name="baozhi1" unicode="&#58881;" d="M946.66717 352.923625 823.334707 746.517164 194.144542 613.089441 223.700547 515.299204 76.042155 476.256087c0 0 68.84238-219.784773 114.210239-364.524053 45.367858-144.73928 155.0778-76.01853 155.0778-76.01853s475.571921 200.08077 547.819931 230.488181C961.141098 294.663024 946.66717 352.923625 946.66717 352.923625L946.66717 352.923625zM240.242179 135.936334 146.344091 435.388526l94.871125 21.893337 115.548165-387.268797 40.502673 24.569189C268.460257 25.618244 240.242179 135.936334 240.242179 135.936334L240.242179 135.936334zM875.027307 298.311914c0 0-90.370828-35.150968-195.580473-78.329493l-67.504454 215.284476-221.122699-69.08564 74.680603-238.150849c-22.014966-10.21689-41.840599-19.704003-58.382231-28.218078l-115.669795 369.02435 0 0-32.353486 103.141941 548.914598 126.373203c0 0 85.262383-271.842262 102.047274-325.480936C926.963167 319.353842 875.027307 298.311914 875.027307 298.311914L875.027307 298.311914zM875.027307 298.311914M841.214266 494.135646l-183.539138-58.260601L672.027426 390.020668l182.5661 61.544601L841.214266 494.135646zM841.214266 494.135646M681.271279 360.829552l14.352298-45.854377 180.863285 66.774676-13.379261 42.570377L681.271279 360.829552zM681.271279 360.829552M428.038354 565.653878l11.554816-36.853783c6.081482-19.217484 12.041335-36.124005 18.974225-52.422378l-0.364889-0.12163c-10.46015 12.649483-22.866374 26.515263-34.907709 37.82682l-42.327117 40.016154-36.002376-8.878964 40.867561-130.630241 27.974819 8.270816-12.162965 38.921487c-6.568001 21.163559-12.771113 39.286376-19.095855 56.192897l0.729778 0.243259c11.068298-13.500891 25.177337-27.73156 37.461931-39.286376l43.300154-41.35408 30.164153 9.000594-39.408006 125.643426L428.038354 565.653878 428.038354 565.653878zM428.038354 565.653878M539.329481 484.770163l-9.243853 29.312745 44.151562 12.162965-6.93289 22.379855-44.273192-11.798076-8.027557 25.663856 47.070673 12.041335-7.05452 22.501485L479.852584 578.424991l39.043117-124.670388 76.626678 22.623114-7.05452 22.501485L539.329481 484.770163zM539.329481 484.770163M655.607424 549.477135c-0.973037 12.649483-2.797482 24.2043-4.986816 37.94845l0.364889 0c5.473334-13.014372 10.825039-23.474522 16.541632-34.786079l25.055707-47.678822 26.393633 7.784297-8.635705 122.237795-24.569189-6.081482 5.959853-49.381637c2.189334-14.473928 4.013778-28.704597 6.446371-42.083858l-0.243259-0.12163c-5.716593 12.406224-11.311557 24.447559-18.001188 37.340302l-24.08267 46.827414-26.758522-6.568001 5.594964-50.719563c1.824445-15.568595 3.648889-30.529041 5.838223-43.908303l-0.364889-0.12163c-5.594964 11.433187-12.771113 26.150374-19.825632 39.772895l-23.961041 46.827414-28.096449-6.93289 65.071861-112.629053 27.974819 8.270816L655.607424 549.477135 655.607424 549.477135zM655.607424 549.477135M767.628329 578.66825c13.62252-1.337926 19.704003-3.892149 21.771707-10.946668 2.310963-7.297779-1.702815-13.62252-12.162965-16.663262-9.730372-2.797482-20.67704-2.067704-27.853189-0.243259l1.946074-22.501485c6.93289-1.824445 19.582373-1.946074 31.258819 1.459556 27.366671 8.149186 35.029338 27.60993 29.191115 46.219266-4.865186 15.690224-16.176743 23.717781-36.124005 26.272004-14.960447 2.067704-21.650077 3.648889-23.839411 10.825039-1.824445 5.716593 1.459556 12.162965 11.433187 14.717187 9.730372 2.432593 18.001188 1.216296 22.623114 0l-1.216296 21.406818c-6.93289 1.702815-15.933484 2.067704-27.4883-0.729778-24.08267-5.838223-34.54282-24.325929-28.461337-43.665043C733.815287 588.155363 748.532474 580.735954 767.628329 578.66825L767.628329 578.66825zM767.628329 578.66825"  horiz-adv-x="1024" />

    
    <glyph glyph-name="dongtai" unicode="&#58934;" d="M559.483966 782.397662c-207.448726 0-375.621936-147.143245-375.621936-328.665485 0-181.51917 168.174234-328.665485 375.621936-328.665485 24.01802 0 47.437405 2.172479 70.210062 5.946432l164.5548-99.852172L794.248827 197.392952c85.797062 60.23078 140.855028 152.600537 140.855028 256.338203C935.104879 635.253394 766.930645 782.397662 559.483966 782.397662L559.483966 782.397662zM442.105628 336.35384c-12.96222 0-23.477714 10.504238-23.477714 23.472598 0 12.966313 10.515494 23.476691 23.477714 23.476691l234.760768 0c12.967336 0 23.476691-10.510378 23.476691-23.476691 0-12.968359-10.510378-23.472598-23.476691-23.472598L442.105628 336.35384 442.105628 336.35384zM395.1502 477.208868c-12.96222 0-23.472598 10.515494-23.477714 23.476691 0 12.968359 10.515494 23.477714 23.477714 23.477714l328.671625 0c12.966313 0 23.471574-10.509355 23.471574-23.477714 0-12.96222-10.510378-23.476691-23.471574-23.476691L395.1502 477.208868 395.1502 477.208868zM395.1502 477.208868M545.102421 113.823628c-1.12973-0.451278-2.242064-0.927115-3.381004-1.36509-35.960003-13.860682-74.402547-21.457708-114.254184-22.590508-7.191796-0.201591-14.017248-3.221368-19.008936-8.40646-0.148379-0.151449-15.292288-15.615653-40.068578-31.504528-14.757099-9.463536-29.892821-17.154705-44.985564-22.86066-9.366322-3.539616-18.723434-6.311753-28.003797-8.30413 11.637038 25.310456 14.092973 51.729152 7.016811 77.643358-2.260483 8.276501-8.256034 15.022135-16.20917 18.23327-50.547233 20.420075-93.216032 52.234665-123.386168 92.00546-30.394241 40.069601-46.462195 86.415139-46.462195 134.027529 0 49.424666 17.184381 95.54917 46.810119 134.424572-6.995321 6.186909-13.252839 13.18837-18.614963 20.849864-35.141358-44.351114-55.660694-97.773837-55.660694-155.275459 0-111.008256 76.449159-206.831672 187.026604-251.501034 9.060353-33.189913-4.486174-61.419861-17.615193-79.408561-6.721075-9.203616-0.119727-22.017456 11.06194-22.017456 0.248663 0 0.499373 0.00614 0.754177 0.016373 90.75498 4.626367 158.12332 74.621535 158.12332 74.621535 46.8971 1.331321 91.212398 11.08036 130.99752 27.501354C553.624515 97.26551 548.860001 105.286184 545.102421 113.823628z"  horiz-adv-x="1024" />

    
    <glyph glyph-name="yibiaopan" unicode="&#59090;" d="M512.016787 771.155934C240.757508 771.155934 20.866098 549.720131 20.866098 276.563934c0-102.718951 31.089311-198.11882 84.320525-277.201836l813.643541 0c53.231213 79.06623 84.320525 174.466098 84.320525 277.201836C1003.150689 549.720131 783.259279 771.155934 512.016787 771.155934zM512.016787 695.060984c38.744131 0 70.16918-31.626492 70.16918-70.656 0-39.029508-31.408262-70.656-70.16918-70.656s-70.16918 31.626492-70.16918 70.656C441.847607 663.434492 473.255869 695.060984 512.016787 695.060984zM155.799082 205.907934c-38.744131 0-70.16918 31.626492-70.16918 70.656 0 39.029508 31.408262 70.656 70.16918 70.656s70.16918-31.643279 70.16918-70.656C225.951475 237.534426 194.543213 205.907934 155.799082 205.907934zM263.738754 455.915016c-38.744131 0-70.16918 31.626492-70.16918 70.656 0 39.029508 31.408262 70.656 70.16918 70.656s70.16918-31.626492 70.16918-70.656C333.907934 487.558295 302.482885 455.915016 263.738754 455.915016zM627.527344 465.517115l-57.025049-212.840918c26.624-18.65023 44.065574-49.68918 44.065574-84.840918 0-57.041836-45.912131-103.272918-102.551082-103.272918s-102.551082 46.231082-102.551082 103.272918c0 51.871475 37.971934 94.812328 87.442885 102.164984l57.629377 215.073574c5.522885 20.614295 26.926164 32.801574 46.499672 27.564066C621.198689 507.232525 633.134164 486.483934 627.527344 465.517115zM690.108852 526.571016c0 39.029508 31.408262 70.656 70.16918 70.656s70.16918-31.626492 70.16918-70.656c0-39.029508-31.408262-70.656-70.16918-70.656S690.108852 487.558295 690.108852 526.571016zM868.217705 205.907934c-38.744131 0-70.16918 31.626492-70.16918 70.656 0 39.029508 31.408262 70.656 70.16918 70.656s70.16918-31.643279 70.16918-70.656C938.386885 237.534426 906.978623 205.907934 868.217705 205.907934z"  horiz-adv-x="1024" />

    
    <glyph glyph-name="dianshi1" unicode="&#58885;" d="M242.944 499.136l89.28 0L292.48 276.736l100.736 0 38.848 222.4L522.24 499.136l13.952 79.552L256.96 578.688 242.944 499.136 242.944 499.136 242.944 499.136zM677.184 378.112 659.84 578.688l-101.12 0 50.752-301.888 100.736 0 159.552 301.888-100.736 0L677.184 378.112 677.184 378.112 677.184 378.112zM675.968 44.8 352.832 44.8c-15.744 0-28.48-12.608-28.48-28.224 0-15.552 12.8-28.224 28.48-28.224l323.136 0c15.68 0 28.48 12.672 28.48 28.224C704.448 32.192 691.712 44.8 675.968 44.8L675.968 44.8 675.968 44.8zM990.464 779.712 33.536 779.712C12.608 779.712 0 767.232 0 746.368l0-608c0-20.8 20.992-33.344 41.92-33.344l948.48 0c20.992 0 33.536 12.416 33.536 33.344l0 608C1024.064 767.168 1011.52 779.712 990.464 779.712L990.464 779.712 990.464 779.712zM973.696 171.712c0-10.432-6.336-16.704-16.832-16.704L67.136 155.008c-10.496 0-16.768 6.336-16.768 16.704L50.368 713.088c0 10.432 6.272 16.64 16.768 16.64l889.728 0c10.496 0 16.832-6.272 16.832-16.64L973.696 171.712 973.696 171.712 973.696 171.712zM973.696 171.712"  horiz-adv-x="1024" />

    
    <glyph glyph-name="anjiandiaocha" unicode="&#58891;" d="M512 384M950.021102-44.068426c-7.695263-7.696286-20.177552-7.696286-27.872814 0L796.127106 81.922057c10.487865 8.061606 20.355607 16.809851 29.464055 26.347065L950.021102-16.155702C957.737854-23.850965 957.737854-36.35372 950.021102-44.068426L950.021102-44.068426zM640.356366 68.322317c-119.865995 0-217.042221 97.18646-217.042221 217.023802 0 119.860878 97.17725 217.033012 217.042221 217.033012 119.856785 0 217.014592-97.173157 217.014592-217.033012S760.212128 68.322317 640.356366 68.322317L640.356366 68.322317zM640.356366 462.905094c-98.081853 0-177.592744-79.485309-177.592744-177.558975 0-98.063433 79.510892-177.558975 177.592744-177.558975 98.073666 0 177.559998 79.495542 177.559998 177.558975C817.915341 383.419785 738.429009 462.905094 640.356366 462.905094L640.356366 462.905094zM206.294436 147.237645 206.294436 186.712705l197.273992 0c5.78475-13.851473 12.885472-26.977421 20.886703-39.47506L206.294436 147.237645 206.294436 147.237645zM206.294436 265.616776l0 39.479153L384.849088 305.095929c-0.493234-6.54302-0.985444-13.08297-0.985444-19.74981 0-6.671956 0.49221-13.195533 0.985444-19.729344L206.294436 265.616776 206.294436 265.616776zM206.294436 541.838841l197.294458 0 0-39.458687L206.294436 502.380154 206.294436 541.838841 206.294436 541.838841zM403.588895 384.024559l-0.020466-0.024559L206.294436 384 206.294436 423.464827l197.294458 0L403.588895 384.024559 403.588895 384.024559zM738.985688 541.838841l-98.589412 0-0.039909 0-0.068562 0-59.134819 0c-43.572378 0-78.909188 35.334763-78.909188 78.924537L502.243799 798.302911 147.100266 798.302911c-21.788236 0-39.45971-17.637706-39.45971-39.449477L107.640556 9.148613c0-21.812795 17.671475-39.454594 39.45971-39.454594l552.430828 0c21.788236 0 39.454594 17.641799 39.454594 39.454594l0 39.449477c8.060583 3.348258 15.957437 7.03523 23.546276 11.195993l15.903202-15.972786 0-34.672684c0-43.586704-35.328623-78.929654-78.904071-78.929654L147.100266-69.78104c-43.571355 0-78.909188 35.343973-78.909188 78.929654L68.191078 758.85241c0 43.585681 35.338856 78.92863 78.909188 78.92863l295.938106 0 10.57587 0 20.340257 0 55.20123 0 243.513106-262.258029-1.176802-6.992251 6.967692-6.961552 0-8.794293 0-50.39476 0-1.1328c-12.501732 7.996115-25.619494 15.095813-39.47506 20.857027L738.984664 541.838841 738.985688 541.838841zM541.692253 765.548926l0-144.785547c0-21.787212 17.676591-39.469943 39.45971-39.469943l133.258003 0L541.692253 765.548926 541.692253 765.548926zM541.692253 765.548926"  horiz-adv-x="1024" />

    
    <glyph glyph-name="weibiaoti4" unicode="&#58920;" d="M894.985701-107.689591c-7.668914 3.105179-39.424945 30.976158-70.569752 61.930852l-56.624041 56.276523-47.320768-20.331873c-78.841713-33.863628-125.45109-43.898734-204.827368-44.127687-169.0575-0.480393-314.372335 71.976179-413.50708 206.179624-52.441555 70.973486-94.143767 183.166748-94.143767 253.246908l0 21.943745 68.936415 0 68.937437 0 3.360708-32.163854C163.468585 259.069104 262.798554 137.496933 401.843748 86.101c28.148994-10.407155 44.618301-12.182566 113.799001-12.269445 75.320533-0.085857 83.765231 0.992472 122.727159 15.679214 192.003938 72.379914 290.981278 269.754034 231.048656 460.766522-13.570595 43.245603-43.751549 98.224043-70.664808 128.700388l-15.340895 17.373878L783.412862 785.351028 783.412862 874.348456l17.118349-10.078035c28.071313-16.519391 102.275699-91.308426 126.236073-127.230589 68.630803-102.86648 98.833222-222.620312 85.716445-339.863835-10.841553-96.921871-43.79039-178.105244-105.035404-258.830711l-30.985357-40.836483 50.489319-51.21093c52.745122-53.508641 62.867108-67.617889 62.867108-87.655394 0-17.935018-15.940875-48.214095-30.34347-57.660464C942.087737-110.40228 911.750399-114.488688 894.985701-107.689591L894.985701-107.689591zM398.49224 307.488644 398.49224 444.16458 292.500138 444.16458 186.507014 444.16458l0 41.840198 0 41.839176 105.994146 0 105.992102 0 0 19.525426 0 19.525426L292.500138 566.894805 186.507014 566.894805l0 44.629545 0 44.628522 106.346775 0 106.346775 0-1.747813 18.130241-1.748835 18.130241-104.59794 1.520904-104.598962 1.51886 0 41.714478L186.507014 778.877986l105.994146 0 105.992102 0L398.493262 825.70303c0 54.977417-1.585297 53.593476 61.364602 53.593476 62.949899 0 61.365624 1.383941 61.365624-53.593476l0-46.825043 117.148466 0c64.431963 0 117.308938-1.879666 117.499051-4.183509 0.883106-10.481769 1.187695-55.764444 0.457907-68.337457l-0.805425-13.946733L639.766115 692.410288 524.009767 692.410288l-1.746791-18.130241-1.749858-18.130241L637.423432 656.149805c88.439354 0 117.525626-1.694663 119.454353-6.972855 1.400295-3.834968 1.835715-23.283735 0.96283-43.23436l-1.589386-36.261505-117.515404-1.503528-117.515404-1.503528 0-19.41606 0-19.41606 117.148466 0 117.151532 0 0-136.674914c0-129.233931-0.611224-137.286137-11.157386-147.8323-10.232374-10.231352-18.598369-11.157386-100.659738-11.157386L554.202987 232.177309l1.639469 40.443992 1.639469 40.445014 37.656689 1.655823 37.653623 1.645602 0 63.902508 0 63.892287-55.783864 0-55.785909 0 0-136.674914 0-136.674914-61.365624 0-61.364602 0L398.49224 307.488644zM31.515834 571.011876l-29.47263 2.058536 1.580187 59.669938 1.579165 59.669938 71.126803 1.563833 71.126803 1.563833 0-64.322597 0-64.322597-43.233338 1.035401C80.443364 568.494412 47.723481 569.884485 31.515834 571.011876z"  horiz-adv-x="1031" />

    
    <glyph glyph-name="weibiaoti555" unicode="&#58940;" d="M563.575144 83.356732c0-78.743412-60.430324-38.455847-60.430324-38.455847l-261.258259 219.748866-40.287565 0c-25.027 0-45.170782 20.753673-45.170782 46.391587l0 184.344518c0 25.63689 20.143783 45.779649 45.170782 45.779649l48.223305 0 253.322519 215.47554c0 0 60.430324 40.898479 60.430324-38.455847L563.575144 83.356732 563.575144 83.356732zM663.67291 268.978337c-8.513908 0-16.984836 3.51915-23.052019 10.412141-11.20418 12.725836-9.971096 32.124651 2.752694 43.327808 22.735817 20.018939 35.774785 48.607044 35.774785 78.435397 0 29.597085-12.869099 58.033741-35.30918 78.017888-12.661368 11.276834-13.784958 30.680766-2.508123 43.342134s30.68179 13.783934 43.342134 2.508123c35.507702-31.623231 55.873542-76.771501 55.873542-123.869169 0-47.461965-20.629853-92.846618-56.599066-124.516922C678.115853 271.500786 670.878009 268.978337 663.67291 268.978337zM686.502871 149.759071c-12.114922 0-23.594371 7.219425-28.443819 19.130709-6.393617 15.703657 1.153266 33.616632 16.856923 40.009226 79.480192 32.358989 130.835837 107.639532 130.835837 191.783954 0 84.557838-51.702546 159.977551-131.719974 192.142112-15.731286 6.323009-23.357987 24.201192-17.033955 39.932478s24.201192 23.356964 39.932478 17.033955c49.671283-19.965727 92.00853-53.583382 122.434493-97.221252 31.260981-44.833091 47.784306-97.355305 47.784306-151.888316 0-54.320163-16.404622-106.671485-47.441499-151.395082-30.201859-43.521213-72.263837-77.152171-121.640408-97.253998C694.277952 150.489712 690.357666 149.759071 686.502871 149.759071z"  horiz-adv-x="1024" />

    
    <glyph glyph-name="shouye" unicode="&#58902;" d="M583.157131 27.344021c0 70.335928 0 140.779304 0 212.042347-47.509037 0-94.019327 0-141.564179 0 0-70.513984 0-140.921543 0-212.611306-4.422729-0.213871-7.953136-0.536212-11.484565-0.536212-66.840314 0-133.716444-0.034792-200.557782 0-22.970154 0-38.413891 13.875009-38.520315 36.84414-0.463558 87.242993-0.321318 174.555571 0.107447 261.798565 0 4.600785 3.709485 10.485819 7.454786 13.624299 60.491723 50.326199 121.30374 100.332103 182.010357 150.373823 40.411385 33.31271 80.785931 66.62542 121.197316 99.904361 3.139503 2.568499 6.349615 5.064342 10.307763 8.239662 24.111141-19.831674 48.115857-39.554878 72.083735-59.313897C663.265634 472.542592 742.23315 407.235191 821.520961 342.320739c8.524141-6.954389 12.163017-14.017248 12.091386-25.252127-0.499373-82.820264-0.356111-165.674297-0.178055-248.457722 0.035816-15.050788-3.709485-28.141944-17.013489-36.45119-4.814656-3.032056-10.914584-5.636371-16.442484-5.671163-70.942749-0.356111-141.884474-0.178055-212.791407-0.143263C586.152349 26.345274 585.08197 26.808832 583.157131 27.344021zM689.69354 614.390227c0 34.989909-0.034792 67.303872 0 99.583043 0.035816 20.615527 4.957919 25.537629 25.537629 25.573445 31.957853 0 63.915705 0.035816 95.872534-0.035816 16.4783-0.035816 22.185278-5.849218 22.221094-23.290449 0.071631-69.087495 0.249687-138.210805-0.212848-207.2983-0.071631-10.664897 2.924609-17.512862 11.305487-24.290219 35.025725-28.176736 69.371974-57.139372 103.898325-85.921905 16.941857-14.123672 17.370623-21.007453 3.103688-37.807071-8.631588-10.201339-17.084097-20.580734-25.78834-30.745235-10.69969-12.589736-19.545148-13.374612-32.350802-2.674922C770.694365 429.777603 648.106376 532.143015 525.481548 634.472612c-4.244674 3.53143-8.595772 6.990205-13.553691 11.056823-27.570939-22.970154-54.926984-45.690622-82.213443-68.480674-99.511411-83.034135-199.022823-166.103062-298.535257-249.13515-13.482059-11.270694-21.86396-10.593266-33.206286 2.674922-9.380648 11.021008-18.72548 22.113647-27.962865 33.241079-10.771321 12.982686-10.342556 21.364587 2.674922 32.313963 55.533804 46.474474 111.209848 92.770893 166.851099 139.13792 74.151837 61.811788 148.376329 123.55092 222.49235 185.469132 33.634028 28.070312 66.376757 28.070312 100.083439-0.213871 39.84038-33.420157 79.787184-66.698075 119.699196-100.010785C683.702082 618.957243 685.699576 617.494938 689.69354 614.390227z"  horiz-adv-x="1024" />

    
    <glyph glyph-name="icon05" unicode="&#58917;" d="M743.452055 769.753425l-62.121331 0c-12.023483 12.023483-30.058708 20.039139-48.093933 20.039139l-12.023483 0c-6.011742 56.109589-52.101761 100.195695-110.215264 100.195695-58.113503 0-104.203523-44.086106-110.215264-100.195695l-8.015656 0c-20.039139 0-36.07045-8.015656-48.093933-20.039139L282.551859 769.753425c-56.109589 0-120.234834-44.086106-120.234834-100.195695l0-681.330724c0-56.109589 64.125245-100.195695 120.234834-100.195695l460.900196 0c56.109589 0 120.234834 44.086106 120.234834 100.195695l0 681.330724C863.686888 725.667319 797.55773 769.753425 743.452055 769.753425zM510.998043 835.882583c32.062622 0 56.109589-26.050881 56.109589-56.109589 0-32.062622-26.050881-56.109589-56.109589-56.109589s-56.109589 26.050881-56.109589 56.109589C454.888454 809.831703 478.935421 835.882583 510.998043 835.882583zM803.569472 48.344423c0-56.109589-44.086106-100.195695-100.195695-100.195695l-380.74364 0c-56.109589 0-100.195695 44.086106-100.195695 100.195695l0 581.135029c0 56.109589 44.086106 100.195695 100.195695 100.195695l0 0c0-4.007828 0-6.011742 0-10.019569 0-38.074364 32.062622-70.136986 70.136986-70.136986l240.469667 0c38.074364 0 70.136986 32.062622 70.136986 70.136986 0 4.007828 0 6.011742-2.003914 10.019569l2.003914 0c56.109589 0 100.195695-44.086106 100.195695-100.195695L803.569472 48.344423zM713.393346 268.774951l-400.782779 0c-16.031311 0-30.058708-14.027397-30.058708-30.058708 0-16.031311 14.027397-30.058708 30.058708-30.058708l400.782779 0c16.031311 0 30.058708 14.027397 30.058708 30.058708C743.452055 254.747554 729.424658 268.774951 713.393346 268.774951zM713.393346 569.362035l-400.782779 0c-16.031311 0-30.058708-14.027397-30.058708-30.058708 0-16.031311 14.027397-30.058708 30.058708-30.058708l400.782779 0c16.031311 0 30.058708 14.027397 30.058708 30.058708C743.452055 555.334638 729.424658 569.362035 713.393346 569.362035zM713.393346 469.166341l-400.782779 0c-16.031311 0-30.058708-14.027397-30.058708-30.058708 0-16.031311 14.027397-30.058708 30.058708-30.058708l400.782779 0c16.031311 0 30.058708 14.027397 30.058708 30.058708C743.452055 455.138943 729.424658 469.166341 713.393346 469.166341zM713.393346 368.970646l-400.782779 0c-16.031311 0-30.058708-14.027397-30.058708-30.058708 0-16.031311 14.027397-30.058708 30.058708-30.058708l400.782779 0c16.031311 0 30.058708 14.027397 30.058708 30.058708C743.452055 354.943249 729.424658 368.970646 713.393346 368.970646zM472.923679 164.571429c-68.133072-34.066536-110.215264-138.270059-110.215264-138.270059l-26.050881 52.101761-54.105675-32.062622c24.046967-8.015656 56.109589-34.066536 84.164384-70.136986 20.039139 36.07045 80.156556 110.215264 110.215264 116.227006C462.90411 118.481409 470.919765 140.524462 472.923679 164.571429z"  horiz-adv-x="1024" />

    
    <glyph glyph-name="cha1" unicode="&#58894;" d="M326.281254 411.968332l375.158566 0 0-78.770187-375.158566 0 0 78.770187ZM326.281254 302.491207l375.158566 0 0-78.437105-375.158566 0 0 78.437105ZM513.244708 894.001507c-281.152359 0-509.071239-227.91888-509.071239-509.068753 0-281.152359 227.91888-509.071239 509.071239-509.071239 281.149873 0 509.068753 227.91888 509.068753 509.071239C1022.313461 666.082627 794.394581 894.001507 513.244708 894.001507zM830.609802 88.543132 194.441644 88.543132l0 32.709159 636.168158 0L830.609802 88.543132zM290.566899 192.346676 290.566899 443.343919l446.586032 0 0-250.996001L290.566899 192.347919zM812.920408 430.992539c-127.500843 40.939269-221.848832 93.342528-283.037753 157.207292l0-122.160344-34.712623 0 0 122.160344C431.304027 524.116327 336.962252 468.710358 212.131037 421.981923c-6.900268 12.457022-13.799293 23.473588-20.693347 33.042241 109.919577 35.600013 203.152735 84.330669 279.700717 146.191968l-261.009592 0 0 32.041752 285.041217 0 0 73.096606 34.712623 0 0-73.096606 286.376031 0 0-32.041752L553.913037 601.216132c76.985463-63.416097 169.665556-108.809717 278.031578-136.178377C826.15545 455.911554 819.814462 444.563149 812.920408 430.992539z"  horiz-adv-x="1027" />

    
    <glyph glyph-name="dianshi2" unicode="&#59008;" d="M836.899718-62.313975 187.075723-62.313975c-13.674441 0-24.761963 11.075243-24.761963 24.76094 0 13.68672 11.087523 24.76094 24.761963 24.76094l649.822972 0c13.674441 0 24.761963-11.075243 24.761963-24.76094C861.661681-51.238732 850.573135-62.313975 836.899718-62.313975zM636.896568 24.447041 387.078873 24.447041c-13.674441 0-24.761963 11.075243-24.761963 24.76094s11.087523 24.76094 24.761963 24.76094L636.896568 73.968921c13.674441 0 24.76094-11.075243 24.76094-24.76094S650.571009 24.447041 636.896568 24.447041zM915.731134 108.791008 108.244306 108.791008c-55.048757 0-99.843986 44.808532-99.843986 99.869568l0 521.783831c0 55.061037 44.796252 99.869568 99.843986 99.869568l807.485805 0c55.073316 0 99.869568-44.808532 99.869568-99.869568l0-521.783831C1015.599679 153.59954 970.804451 108.791008 915.731134 108.791008zM108.244306 780.789025c-27.747971 0-50.321082-22.584368-50.321082-50.345642l0-521.783831c0-27.759227 22.573111-50.345642 50.321082-50.345642l807.485805 0c27.760251 0 50.345642 22.586414 50.345642 50.345642l0 521.783831c0 27.761274-22.584368 50.345642-50.345642 50.345642L108.244306 780.789025 108.244306 780.789025z"  horiz-adv-x="1024" />

    
    <glyph glyph-name="dongtai1" unicode="&#58922;" d="M241.08787-24.124188l-18.042935 182.678576c-44.187385 32.134885-80.893378 72.02336-106.571201 115.910916-29.111015 49.751101-43.871183 102.890368-43.871183 157.939125 0 49.576115 11.833513 97.662297 35.172057 142.9262 22.373567 43.391253 54.301743 82.287121 94.897324 115.605971 82.724073 67.896366 192.579063 105.288998 309.328068 105.288998s226.602971-37.392632 309.328068-105.288998c40.59558-33.31885 72.523757-72.214718 94.897324-115.605971 23.338544-45.26288 35.172057-93.350085 35.172057-142.9262 0-49.572022-11.715833-97.721649-34.82004-143.110395-22.198581-43.611264-53.885258-82.727143-94.176916-116.26191-82.392522-68.571748-191.954847-106.336864-308.508399-106.336864-41.963741 0-83.902922 5.143137-122.060987 14.924921L241.08787-24.124188zM511.998977 748.764658c-216.113059 0-391.935484-141.919267-391.935484-316.360228 0-46.511313 12.574387-91.586928 37.374212-133.971247 23.923876-40.888246 59.057047-77.960583 101.602026-107.209744l9.087982-6.248308 12.205996-123.595946 102.603843 71.974241 10.881838-3.108804c36.845163-10.526751 78.365812-16.090467 120.070656-16.090467 215.071334 0 390.04646 142.765541 390.04646 318.250274C903.93446 606.846414 728.113059 748.764658 511.998977 748.764658zM236.856499-33.34213l-18.679431 189.117219c-43.874253 32.276101-80.536244 72.379471-106.119923 116.106368-29.575596 50.54621-44.571125 104.553241-44.571125 160.522973 0 50.398854 12.024871 99.275028 35.741016 145.270595 22.695908 44.01547 55.06206 83.452667 96.198969 117.215632 83.636862 68.64645 194.645119 106.450451 312.575018 106.450451 117.927853 0 228.936109-37.805024 312.572972-106.450451 41.136909-33.762965 73.503061-73.200162 96.199992-117.215632 23.716144-45.995567 35.741016-94.871741 35.741016-145.270595 0-50.385551-11.903098-99.31596-35.376719-145.431254-22.51376-44.231387-54.632271-83.889619-95.463212-117.872594-83.311451-69.336158-194.037275-107.520829-311.781956-107.520829-41.354873 0-83.150792 5.012154-121.04382 14.505365L236.856499-33.34213zM512 791.109068c-115.569132 0-224.270856-36.980239-306.08214-104.127546-40.053228-32.873712-71.54343-71.227228-93.596701-113.996311-22.960944-44.532239-34.602076-91.829452-34.602076-140.580782 0-54.128805 14.524808-106.399285 43.170219-155.354254 25.236777-43.131333 61.600987-82.675978 105.165178-114.357538l1.856277-1.350764 17.408485-176.247096 145.501862 102.06763 2.28095-0.584308c37.677111-9.658987 79.4454-14.765285 120.791064-14.765285 115.357308 0 223.759203 37.343513 305.235866 105.152898 39.757492 33.090653 71.009264 71.66418 92.888574 114.651226 22.735817 44.663222 34.263361 92.032066 34.263361 140.788513 0 48.751331-11.642155 96.049566-34.603099 140.580782-22.053272 42.769083-53.54245 81.123622-93.595678 113.996311C736.26881 754.128829 627.567086 791.109068 512 791.109068zM276.102339 52.161243l-12.833283 129.944538-7.128351 4.900613c-43.161009 29.673833-78.819137 67.310012-103.119589 108.841917-25.264407 43.178405-38.075177 89.122807-38.075177 136.555096 0 177.26324 178.116677 321.476759 397.052015 321.476759 218.934315 0 397.052015-144.213519 397.054061-321.476759 0-178.304965-177.269379-323.366805-395.162991-323.366805-42.176588 0-84.182284 5.632277-121.475656 16.286941l-8.535397 2.438539L276.102339 52.161243zM511.998977 743.648127c-213.292827 0-386.818953-139.622968-386.818953-311.243697 0-45.592384 12.339026-89.797166 36.673248-131.387399 23.546276-40.24254 58.154491-76.751035 100.084463-105.578594l11.047614-7.594979 11.57871-117.247354 97.43103 68.346621 13.228279-3.77907c36.391838-10.396791 77.426417-15.892969 118.664633-15.892969 212.251102 0 384.92993 140.470265 384.92993 313.133743C898.817929 604.024136 725.290781 743.648127 511.998977 743.648127zM317.470515 421.068244m-49.726541 0a48.594 48.594 0 1 0 99.453083 0 48.594 48.594 0 1 0-99.453083 0ZM317.470515 366.225171c-30.240745 0-54.843072 24.602328-54.843072 54.843072s24.602328 54.843072 54.843072 54.843072 54.843072-24.602328 54.843072-54.843072S347.710236 366.225171 317.470515 366.225171zM317.470515 465.678254c-24.598234 0-44.61001-20.011776-44.61001-44.61001 0-24.598234 20.011776-44.61001 44.61001-44.61001 24.598234 0 44.61001 20.011776 44.61001 44.61001C362.080525 445.666478 342.068749 465.678254 317.470515 465.678254zM505.926678 421.068244m-49.726541 0a48.594 48.594 0 1 0 99.453083 0 48.594 48.594 0 1 0-99.453083 0ZM505.926678 366.225171c-30.240745 0-54.843072 24.602328-54.843072 54.843072s24.602328 54.843072 54.843072 54.843072 54.843072-24.602328 54.843072-54.843072S536.166399 366.225171 505.926678 366.225171zM505.926678 465.678254c-24.598234 0-44.61001-20.011776-44.61001-44.61001 0-24.598234 20.011776-44.61001 44.61001-44.61001 24.598234 0 44.61001 20.011776 44.61001 44.61001C550.535665 445.666478 530.524912 465.678254 505.926678 465.678254zM693.381024 421.068244m-49.726541 0a48.594 48.594 0 1 0 99.453083 0 48.594 48.594 0 1 0-99.453083 0ZM693.381024 366.225171c-30.240745 0-54.844096 24.602328-54.844096 54.843072s24.603351 54.843072 54.844096 54.843072 54.843072-24.602328 54.843072-54.843072S723.621768 366.225171 693.381024 366.225171zM693.381024 465.678254c-24.598234 0-44.611034-20.011776-44.611034-44.61001 0-24.598234 20.012799-44.61001 44.611034-44.61001s44.61001 20.011776 44.61001 44.61001C737.991034 445.666478 717.979258 465.678254 693.381024 465.678254z"  horiz-adv-x="1024" />

    
    <glyph glyph-name="dianshi3" unicode="&#59525;" d="M754.164389 55.169763 283.544845 55.169763c-3.093455 0-5.602601-2.509147-5.602601-5.603625l0-11.205203c0-3.093455 2.509147-5.602601 5.602601-5.602601l470.619544 0c3.093455 0 5.602601 2.509147 5.602601 5.602601l0 11.205203C759.76699 52.660616 757.257843 55.169763 754.164389 55.169763zM496.443699 514.582057l-190.488449 0c-3.093455 0-5.602601-2.508123-5.602601-5.602601l0-11.205203c0-3.093455 2.509147-5.601578 5.602601-5.601578l84.039022 0 0-165.862585c0-3.094478 2.509147-5.603625 5.602601-5.603625l11.205203 0c3.094478 0 5.602601 2.509147 5.602601 5.603625L412.404678 492.172675l84.039022 0c3.094478 0 5.602601 2.508123 5.602601 5.601578l0 11.205203C502.046301 512.073934 499.538177 514.582057 496.443699 514.582057zM927.84401 738.687138l-829.185013 0c-18.565844 0-33.616632-15.049764-33.616632-33.615609l0-571.465346c0-18.565844 15.050788-33.615609 33.616632-33.615609l829.185013 0c18.565844 0 33.615609 15.049764 33.615609 33.615609l0 571.465346C961.459618 723.637374 946.409854 738.687138 927.84401 738.687138zM939.050236 144.811386c0-12.376888-10.033517-22.411429-22.411429-22.411429L109.865223 122.399957c-12.377912 0-22.411429 10.034541-22.411429 22.411429L87.453794 693.865303c0 12.376888 10.033517 22.411429 22.411429 22.411429l806.773584 0c12.377912 0 22.411429-10.034541 22.411429-22.411429L939.050236 144.811386zM711.149712 507.760698l-9.94449 5.345752c-2.746554 1.474584-6.148024 0.405229-7.598049-2.38942l-79.508845-153.264663-79.507822 153.264663c-1.450025 2.794649-4.851495 3.864004-7.598049 2.38942l-9.94449-5.345752c-2.745531-1.475608-3.796466-4.937452-2.346441-7.733125l89.264023-172.069961c2.27481-4.38589 6.306636-7.297197 10.132778-7.297197 3.939729 0 7.374968 2.912329 10.132778 7.297197l89.264023 172.069961C714.945155 502.824269 713.895243 506.285091 711.149712 507.760698z"  horiz-adv-x="1024" />

    
    <glyph glyph-name="fuhe" unicode="&#58988;" d="M694.242-128.003 329.763-128.003C147.915-128.003 0 19.908 0 201.758L0 566.237C0 748.084 147.915 896 329.763 896l364.479 0c181.85 0 329.761-147.916 329.761-329.763l0-364.479C1024.003 19.908 876.092-128.003 694.242-128.003zM329.763 843.917c-153.105 0-277.681-124.575-277.681-277.683l0-364.476c0-153.1 124.575-277.686 277.681-277.686l364.479 0c153.1 0 277.681 124.58 277.681 277.686L971.923 566.237c0 153.105-124.58 277.681-277.681 277.681L329.763 843.918 329.763 843.917zM712.982 734.719 309.478 734.719c-78.533 0-144.898-65.535-144.898-143.09l0-388.721c0-75.475 63.635-134.6 144.898-134.6l56.825 0c15.88 0 28.823 12.425 28.823 27.775 0 15.295-12.943 27.775-28.823 27.775l-56.825 0c-48.935 0-87.248 34.67-87.248 79.05L222.23 591.629c0 46.655 40.788 87.593 87.248 87.593l403.504 0c46.405 0 85.585-40.143 85.585-87.593l0-51.275c0-15.3 12.955-27.77 28.83-27.77 15.93 0 28.825 12.47 28.825 27.77l0 51.275C856.222 669.137 790.642 734.719 712.982 734.719L712.982 734.719M691.062 381.819c-15.935 0-28.83-12.425-28.83-27.775 0-54.355-45.88-98.58-102.295-98.58-15.93 0-28.825-12.415-28.825-27.765 0-15.31 12.895-27.775 28.825-27.775 88.22 0 159.95 69.16 159.95 154.12C719.887 369.394 706.992 381.819 691.062 381.819L691.062 381.819M479.644 487.394c-37.695-21.165-65.128-56.643-75.233-97.28-3.713-14.91 5.878-29.91 21.295-33.49 2.27-0.5 4.538-0.745 6.755-0.745 13.048 0 24.803 8.55 28 21.27 6.445 25.98 24.03 48.685 48.16 62.2 13.77 7.7 18.46 24.74 10.425 37.96C511.044 490.624 493.359 495.094 479.644 487.394L479.644 487.394M758.817 197.238c36.41 42.775 58.27 97.385 58.27 156.805 0 136.628-115.35 247.768-257.151 247.768-141.81 0-257.161-111.14-257.161-247.718 0-136.58 115.35-247.781 257.161-247.781 59.35 0 113.905 19.685 157.465 52.315l85.14-81.975c5.62-5.42 12.995-8.15 20.37-8.15s14.75 2.69 20.375 8.15c11.225 10.83 11.225 28.42 0 39.295L758.817 197.238 758.817 197.238M360.426 354.043c0 106.02 89.515 192.226 199.51 192.226 109.975 0 199.496-86.253 199.496-192.226 0-105.98-89.52-192.235-199.496-192.235C449.941 161.808 360.426 248.063 360.426 354.043L360.426 354.043"  horiz-adv-x="1024" />

    
    <glyph glyph-name="zhongguo1" unicode="&#58941;" d="M828.823 48.163l63.619 0 0 64.263-63.619 0 0-64.263zM510.741-16.091l127.23 0 0-64.268-127.23 0 0 64.268zM1008.606 742.126l-123.609 106.174c-9.098 7.766-21.691 9.837-32.765 5.203l-95.677-39.911-77.1-48.831c-10.186-6.556-15.85-18.329-14.575-30.402l9.609-94.608-89.001-61.763-104.905-12.524-83.851 46.016-52.098 102.629c-7.891 15.553-26.654 21.852-42.239 14.204l-113.053-55.718c-10.939-5.398-17.875-16.587-17.875-28.87l0-42.147-37.728-37.149-42.878 0c-8.204 0-16.159-3.21-22.074-9.001l-57.257-55.716c-12.974-12.658-12.974-33.612 0-46.27l50.198-48.849 28.818-137.906c1.524-7.276 5.474-13.829 11.262-18.449l104.391-84.514c5.661-4.56 12.665-7.063 19.914-7.063l115.024 0 0-69.921c0-17.743 14.246-32.14 31.802-32.14l128.062 0 57.959-39.851c10.052-6.931 23.09-7.439 33.653-1.349l78.75 45.443 108.661 41.321c5.788 2.189 10.746 6.103 14.444 11.113l68.384 94.862c3.947 5.534 6.109 12.148 6.109 18.899l0 93.573c0 8.684-3.498 16.976-9.605 23.007l-39.95 39.204 50.571 33.67c4.708 3.091 8.463 7.394 11.01 12.465l35.498 71.541 89.765 63.11c8.522 6.029 13.615 15.852 13.615 26.353l0 129.687c0 9.431-4.138 18.385-11.262 24.475l0 0zM956.243 604.805l-82.762-58.314c-4.319-3.075-7.884-7.185-10.238-11.954l-35.249-71.06-76.719-50.845c-16.992-11.306-19.281-35.531-4.709-49.867l58.716-57.712 0-69.532-56.685-78.682-104.261-40.091-65.907-37.659-49.687 34.18c-5.28 3.675-11.513 5.593-17.939 5.593l-106.114 0 0 69.923c0 17.743-14.249 32.14-31.81 32.14l-135.626 0-86.841 70.252-28.431 136.362c-1.342 6.315-4.454 12.09-9.103 16.528l-33.395 32.577 29.198 23.591 38.107 0c8.271 0 16.286 3.267 22.209 9.12l56.549 55.716c6.045 5.985 9.545 14.266 9.545 22.949l-5.284 10.079 72.521 58.554 42.309-83.347c2.926-5.728 7.505-10.467 13.105-13.557l101.405-55.733c5.789-3.089 12.404-4.364 18.961-3.583l122.647 14.695c5.09 0.646 9.989 2.462 14.249 5.414l111.073 76.985c9.613 6.691 14.826 18.058 13.617 29.759l-9.539 93.766 55.601 35.666 72.778 29.952 97.711-83.93 0-97.936-0.001 0zM956.243 604.805z"  horiz-adv-x="1024" />

    
    <glyph glyph-name="guanggao" unicode="&#58892;" d="M1461.146 626.71c0.078 24.464-8.727 45.443-26.195 62.891-17.17 17.143-38.335 26.011-63.496 26.682l-985.802-0.524c-25.087 0-52.631-6.205-82.521-18.556-29.819-12.337-53.591-27.263-71.116-44.779l-206.195-205.907c-17.173-17.213-25.75-38.271-25.835-63.326 0.083-25.060 8.663-46.202 25.835-63.344l206.195-205.9c17.526-17.51 41.212-32.447 71.116-44.79 29.89-12.337 57.21-18.329 82.069-18.031l986.773-0.521c24.425 0 45.435 8.732 62.913 26.259 17.17 17.129 26.104 38.272 26.792 63.315l-0.533 486.532M262.147 320.172c-17.539-17.51-38.625-26.299-63.427-26.299-24.789 0-45.961 8.718-63.5 26.243-17.467 17.44-26.272 38.569-26.272 63.329 0 24.758 8.734 45.819 26.272 63.342 17.467 17.44 38.639 26.23 63.429 26.23 24.872-0.071 45.958-8.789 63.426-26.23 17.537-17.524 26.272-38.651 26.272-63.342 0.001-24.833-8.731-45.89-26.2-63.272v0M343.098 383.441v0zM859.405 566.399l-22.955-57.727h-309.999v-309.545l-79.772-36.591-0 403.863 165-0.228c7.12 11.967 14.24 20.302 21.363 25 7.12 4.695 14.96 7.006 23.522 6.931 8.558-0.079 16.78-2.501 24.659-7.273 7.877-4.772 13.181-9.659 15.909-14.659l5.682-9.773 156.591 0.001zM1002.587 502.308l-16.591-42.046h-81.365l52.955 127.273h79.092l-14.090-34.773h53.636v33.409h76.818v-33.409h160.91l-21.589-50.454h-139.321v-74.545h171.819l-26.137-51.364h-390.682v51.364h168.182v74.545l-73.636 0zM924.859 353.672h377.045v-123.864l-76.591-59.772-300.455-0v183.636zM1225.314 304.127h-224.318v-84.318h224.318v84.318z"  horiz-adv-x="1462" />

    
    <glyph glyph-name="baogao" unicode="&#58924;" d="M371.981418 627.907708 648.410447 627.907708C695.497956 627.907708 733.869187 666.206669 733.869187 713.270869L733.869187 717.856301C733.869187 720.763283 733.724655 723.667934 733.412272 726.501483 729.4516 765.785368 698.713822 797.215506 659.840222 802.452503 656.118494 802.956038 652.324499 803.341848 648.409281 803.341848L611.359833 803.341848 611.359833 810.183862C611.359833 857.272539 573.059706 895.643766 525.899928 895.643766L494.444147 895.643766C447.332159 895.643766 409.007555 857.272539 409.007555 810.183862L409.007555 803.341848 371.933629 803.341848C368.068532 803.341848 364.296682 802.956039 360.527164 802.452503 321.674547 797.216672 290.915789 765.834322 286.978426 726.550438 286.690525 723.691245 286.521515 720.811072 286.521515 717.905256L286.521515 713.319824C286.521512 666.206669 324.895072 627.907708 371.981418 627.907708L371.981418 627.907708ZM874.05238 824.975202 748.205943 824.975202 748.205943 779.953117 874.05238 779.953116C882.599652 779.953116 889.540745 773.014357 889.540745 764.464753L889.540745-67.076585C889.540745-75.625023 882.599657-82.564949 874.05238-82.564949L146.338317-82.564949C137.791045-82.564949 130.849955-75.625023 130.849955-67.028799L130.849955 764.512543C130.849955 773.03767 137.789878 779.977594 146.338317 779.977594L272.139296 779.977594 272.139296 825.024156 146.338317 825.024155C112.962808 825.024155 85.852346 797.865905 85.852346 764.561498L85.852346-66.93322C85.852346-100.308725 112.961643-127.443666 146.338317-127.443666L874.05238-127.443666C907.43139-127.443666 934.540681-100.333204 934.540681-66.981006L934.540681 764.512543C934.53952 797.865905 907.431384 824.975202 874.05238 824.975202L874.05238 824.975202ZM305.250215 436.698472 715.140483 436.698472C740.472252 436.698472 761.002957 457.251323 761.002957 482.585425 761.002957 507.917196 740.473418 528.450232 715.140483 528.450232L305.250215 528.450232C279.918444 528.450232 259.364427 507.918361 259.364427 482.585425 259.364427 457.252488 279.918445 436.698472 305.250215 436.698472L305.250215 436.698472ZM715.140483 338.272543 305.250215 338.272543C279.918444 338.272543 259.364427 317.741841 259.364427 292.410066 259.364427 267.077131 279.918445 246.523113 305.250215 246.523113L715.140483 246.523113C740.472252 246.523113 761.002957 267.077131 761.002957 292.410066 761.002957 317.740675 740.472252 338.272543 715.140483 338.272543L715.140483 338.272543ZM715.140483 148.094851 305.250215 148.094851C279.918444 148.094851 259.364427 127.566478 259.364427 102.232377 259.364427 76.873796 279.918445 56.343091 305.250215 56.343091L715.140483 56.343091C740.472252 56.343091 761.002957 76.899442 761.002957 102.232377 761.002957 127.565312 740.472252 148.094851 715.140483 148.094851L715.140483 148.094851Z"  horiz-adv-x="1024" />

    
    <glyph glyph-name="tv" unicode="&#58984;" d="M230.516 769.235l45.127 51.477 159.888-186.529-45.127-32.059-159.888 167.113zM640.586 769.235l-45.477 51.477-161.364-186.529 45.497-32.059 161.345 167.113zM912.517 645.795h-798.588c-31.476 0-57.051-26.079-57.051-58.235v-523.978c0-32.156 25.554-58.235 57.051-58.235h798.588c31.495 0 57.051 26.079 57.051 58.235v523.978c-0.019 32.175-25.554 58.235-57.051 58.235zM717.113 92.224c0-15.806-12.932-28.641-28.894-28.641h-543.881c-15.942 0-28.875 12.816-28.875 28.641v467.315c0 15.806 12.932 28.641 28.875 28.641h543.881c15.962 0 28.894-12.816 28.894-28.641v-467.315zM846.962 383.806c-31.516 0-57.051 26.079-57.051 58.215 0 32.156 25.516 58.235 57.051 58.235 31.495 0 57.051-26.079 57.051-58.235 0-32.137-25.554-58.215-57.051-58.215zM846.962 170.207c-31.516 0-57.051 26.079-57.051 58.215 0 32.156 25.516 58.235 57.051 58.235 31.495 0 57.051-26.079 57.051-58.235 0-32.137-25.554-58.215-57.051-58.215z"  horiz-adv-x="1024" />

    
    <glyph glyph-name="jiance" unicode="&#58901;" d="M1015.384218-79.227524L851.889974 84.26672c126.205644 140.54749 154.888336 335.592395 88.918045 501.954608-2.867969 11.473877-14.341846 20.078784-25.814723 20.078784-17.209815 0-28.683692-11.472877-28.683692-28.683692 0-2.867969 0-5.735938 2.868969-8.604907 63.102322-157.757305 25.814723-341.329333-94.654983-464.667009C711.342484 24.031367 602.345654-21.86014 487.614887-21.86014c-114.732768 0-223.728597 45.892507-304.041734 126.205644-166.362213 166.362213-166.362213 441.721255 0 608.083468C263.88529 792.740109 372.881119 838.633616 487.614887 838.633616c111.864798 0 215.123689-43.024538 295.436826-117.600736 5.736938-5.736938 11.472877-8.604908 20.077785-8.604908 17.209815 0 28.683692 11.472877 28.683692 28.682692 0 8.604908-2.868969 14.341846-8.604908 20.078784C731.421268 850.106493 608.083593 896 487.613887 896 361.408243 896 238.070568 847.238524 143.415584 752.584541c-189.307966-189.308966-189.307966-499.087639 0-688.396606 94.654983-94.653983 220.860627-143.415459 344.198303-143.415459 114.732768 0 232.333504 43.024538 324.119518 123.337675l163.494244-163.494244c5.736938-5.736938 14.341846-8.604908 20.078784-8.604907s14.340846 2.867969 20.077785 8.604907c11.472877 11.472877 11.472877 28.683692 0 40.156569zM803.128498 416.991146H688.39573h-2.867969c-8.604908 0-17.209815-2.867969-22.946754-8.604908l-22.946753-22.946753-172.098151 149.152397c-2.868969 2.868969-5.736938 2.868969-11.473877 2.868969-11.472877 0-22.946754-2.868969-28.682692-14.341845l-103.258891-120.468706H220.859752c-17.209815 0-28.683692-11.473877-28.683691-28.683692s11.473877-28.683692 28.683691-28.683692H338.461489c11.472877-2.867969 22.946754 2.868969 28.682692 14.341846l91.787014 108.995829L625.293408 325.206132l5.735938-2.86797h20.078785c2.867969 0 5.736938 2.867969 8.604907 2.86797 0 0 2.867969 0 2.867969 2.867969l31.551661 31.551661h108.99583c17.209815 0 28.683692 11.472877 28.683692 28.683692 0 14.340846-11.473877 28.682692-28.683692 28.682692z"  horiz-adv-x="1024" />

    
    <glyph glyph-name="guangbo1" unicode="&#58890;" d="M687.396571-127.463619v75.093333c217.039238 48.37181 361.764571 217.770667 361.764572 436.370286 0 219.818667-149.308952 395.02019-361.764572 436.370286V895.463619C932.522667 859.233524 1121.52381 645.217524 1121.52381 384c0-261.217524-189.001143-475.233524-434.127239-511.463619z m-180.906666 72.606476L180.906667 164.571429H72.362667C32.377905 164.571429 0 197.339429 0 237.714286v292.571428C0 570.660571 32.377905 603.428571 72.362667 603.428571H180.906667l325.583238 219.428572c39.984762 0 72.362667-32.768 72.362666-73.142857v-731.428572c0-40.374857-32.377905-73.142857-72.362666-73.142857zM180.906667 493.714286a36.425143 36.425143 0 0 1-36.181334 36.571428h-36.181333a36.376381 36.376381 0 0 1-36.181333-36.571428v-219.428572c0-20.187429 16.188952-36.571429 36.181333-36.571428h36.181333a36.425143 36.425143 0 0 1 36.181334 36.571428v219.428572zM506.489905 18.285714l-253.220572 159.98781V589.726476L506.489905 749.714286v-731.428572z m397.945905 365.714286a254.342095 254.342095 0 0 0-217.039239-252.294095v73.142857a182.369524 182.369524 0 0 1 144.725334 179.151238 182.369524 182.369524 0 0 1-144.725334 179.151238v73.142857a254.342095 254.342095 0 0 0 217.039239-252.294095z"  horiz-adv-x="1121" />

    
    <glyph glyph-name="view" unicode="&#59027;" d="M737.547 280.287c-26.411 0-47.888-21.98-47.888-48.997 0-27.015 21.478-48.99 47.888-48.99 26.415 0 47.905 21.975 47.905 48.99 0 27.017-21.489 48.997-47.905 48.997zM762.348 380.289c-94.495 0-171.091-78.254-171.091-174.812 0-96.563 76.596-174.855 171.091-174.855 94.477 0 171.075 78.293 171.075 174.855 0 96.563-76.598 174.812-171.075 174.812zM844.731 102.708c-5.21 0-9.953 2.158-13.38 5.653l-55.428 56.656c-11.267-6.804-24.345-10.761-38.375-10.761-41.786 0-75.663 34.598-75.663 77.305 0 42.697 33.878 77.316 75.663 77.316 41.784 0 75.661-34.619 75.661-77.316 0-14.325-3.886-27.703-10.539-39.215l55.439-56.638c3.43-3.521 5.545-8.337 5.545-13.647 0-0.012-0-0.025-0-0.037 0-10.678-8.467-19.316-18.923-19.316zM529.95 210.095c0 120.402 96.021 218.343 214.046 218.343 18.798 0 37.43-2.494 55.48-7.423l-1.435 327.276c0 18.336-20.956 40.026-38.646 40.026h-625.535c-17.702 0-38.652-21.69-38.652-40.026v-701.957c0-18.644 20.352-46.153 38.652-46.153h551.006c-89.36 26.246-154.917 110.42-154.917 209.915zM242.838 609.255h408.452c16.464 0 29.808-13.343 29.808-29.803 0-16.461-13.344-29.806-29.808-29.806h-408.452c-16.462 0-29.804 13.345-29.804 29.806 0 16.46 13.342 29.803 29.804 29.803zM242.838 462.649h334.303c16.466 0 29.815-13.343 29.815-29.812 0-16.462-13.348-29.801-29.815-29.801h-334.303c-16.462 0-29.804 13.339-29.804 29.801 0 16.468 13.342 29.812 29.804 29.812zM465.923 256.418h-223.085c-16.462 0-29.804 13.344-29.804 29.805 0 16.465 13.342 29.808 29.804 29.808h223.085c16.462 0 29.8-13.343 29.8-29.808 0.001-16.461-13.338-29.805-29.8-29.805z"  horiz-adv-x="1024" />

    
    <glyph glyph-name="jiance1" unicode="&#58899;" d="M513.88416-62.78144c-246.5536 0-447.14496 200.58624-447.14496 447.14496s200.59136 447.15008 447.14496 447.15008 447.1552-200.59136 447.1552-447.15008-200.6016-447.14496-447.1552-447.14496z m0 863.27808c-229.44256 0-416.11776-186.6752-416.11776-416.128 0-229.44256 186.6752-416.11264 416.11776-416.11264 229.4528 0 416.12288 186.67008 416.12288 416.11264 0.00512 229.44768-186.66496 416.128-416.12288 416.128zM513.88416 10.85952c-205.94688 0-373.49888 167.56736-373.49888 373.504 0 205.95712 167.552 373.504 373.49888 373.504 205.952 0 373.49888-167.552 373.49888-373.504 0-205.93664-167.54688-373.504-373.49888-373.504z m0 700.47232c-180.28544 0-326.95808-146.67264-326.95808-326.96832 0-180.29056 146.67264-326.9632 326.95808-326.9632 180.29056 0 326.9632 146.67264 326.9632 326.9632 0.00512 180.29568-146.67264 326.96832-326.9632 326.96832zM339.23072 200.27904c-55.64416 50.80064-81.50016 116.5824-84.23936 186.69056-5.77536 148.00896 125.00992 251.29472 252.07296 251.29472 148.11136 0 260.9152-114.36544 260.9152-262.48704a268.3392 268.3392 0 0 0-66.47296-176.90112l-23.34208 20.43392a237.4144 237.4144 0 0 1 58.79296 156.4672c0 131.01568-98.88768 231.46496-229.89312 231.46496s-231.89504-96.78336-231.89504-227.79392c0.00512-66.59584 14.848-134.23104 64.06144-179.16928zM416.40448 260.75648c-31.50848 28.7744-46.1568 66.0224-47.70304 105.728C365.42976 450.28352 439.48544 508.7744 511.4368 508.7744c83.87072 0 147.74272-64.76288 147.74272-148.63872a151.9104 151.9104 0 0 0-37.64736-100.16768l-13.2096 11.57632a134.37952 134.37952 0 0 1 33.29536 88.59648c0 74.19392-55.99744 131.072-130.18112 131.072-74.18368 0-131.31264-54.80448-131.31264-128.98816 0-37.72416 8.40704-76.02176 36.28032-101.46816zM519.808 363.22304m-48.56832 0a48.56832 48.56832 0 1 1 97.13664 0 48.56832 48.56832 0 1 1-97.13664 0ZM627.65568 595.82464m-46.97088 0a46.97088 46.97088 0 1 1 93.94176 0 46.97088 46.97088 0 1 1-93.94176 0ZM385.28512 396.29312m-33.07008 0a33.07008 33.07008 0 1 1 66.14016 0 33.07008 33.07008 0 1 1-66.14016 0ZM548.6592 356.59264l219.27424-210.6112-18.8928-19.66592-219.27424 210.6112z"  horiz-adv-x="1024" />

    
    <glyph glyph-name="plus-datareport" unicode="&#59184;" d="M857.6 768h-628.992c-15.757 0-27.315-14.029-25.267-29.658 0.026-0.166 0.051-0.346 0.064-0.512 1.536-11.891 11.174-21.030 23.155-21.030h631.040c28.275 0 51.2-22.925 51.2-51.2v-691.2c0-28.275-22.925-51.2-51.2-51.2l-691.2 0c-28.275 0-51.2 22.925-51.2 51.2v653.99c27.251-24.499 63.104-39.59 102.4-39.59h563.2c14.144 0 25.6 11.456 25.6 25.6s-11.456 25.6-25.6 25.6h-559.578c-54.49 0-102.144 41.024-105.779 95.386-3.994 59.622 43.379 109.414 102.157 109.414h563.2c14.144 0 25.6 11.456 25.6 25.6s-11.456 25.6-25.6 25.6h-563.2c-84.48 0-153.6-69.12-153.6-153.6v0-768c0-56.32 46.080-102.4 102.4-102.4h691.2c56.32 0 102.4 46.080 102.4 102.4v691.2c0 56.32-46.067 102.4-102.4 102.4zM371.226 0v256h-153.6v-256h153.6zM268.826 204.8h51.2v-153.6h-51.2v153.6zM588.8 0v384h-153.6v-384h153.6zM486.4 332.8h51.2v-281.6h-51.2l-0 281.6zM652.787 0h153.6v512h-153.6v-512zM703.987 460.8h51.2v-409.6h-51.2v409.6z"  horiz-adv-x="1024" />

    
    <glyph glyph-name="67" unicode="&#59034;" d="M91.136 773.12h805.376v-79.36h-29.696v-413.184h29.696v-79.36h-363.008v-156.16h161.792v-79.36h-402.944v79.36h161.792v156.16h-363.008v79.36h27.648v413.184h-27.648v79.36zM699.392 577.536l-68.608 3.072 9.728-18.944-134.656-75.776-54.784 38.4-6.144 4.096-6.656-2.56-118.784-45.056 9.728-25.6 111.616 42.496 55.808-38.912 7.168-5.12 7.68 4.096 140.8 79.36 9.216-17.92 37.888 58.368zM629.248 488.96v-127.488h38.912v127.488h-38.912zM568.32 453.632v-92.16h38.912v92.16h-38.912zM506.88 408.576v-47.104h38.912v47.104h-38.912zM445.952 438.784v-76.8h38.912v76.8h-38.912zM384 446.464v-84.992h38.912v84.992h-38.912zM323.072 423.424v-61.952h38.912v61.952h-38.912zM783.872 689.664h-582.144v-404.48h582.144v404.48z"  horiz-adv-x="1024" />

    
    <glyph glyph-name="list2" unicode="&#59101;" d="M146.285714 146.285714v-109.714285q0-7.428571-5.428571-12.857143T128 18.285714H18.285714q-7.428571 0-12.857143 5.428572T0 36.571429v109.714285q0 7.428571 5.428571 12.857143T18.285714 164.571429h109.714286q7.428571 0 12.857143-5.428572t5.428571-12.857143z m0 219.428572v-109.714286q0-7.428571-5.428571-12.857143T128 237.714286H18.285714q-7.428571 0-12.857143 5.428571T0 256V365.714286q0 7.428571 5.428571 12.857143T18.285714 384h109.714286q7.428571 0 12.857143-5.428571T146.285714 365.714286z m0 219.428571v-109.714286q0-7.428571-5.428571-12.857142T128 457.142857H18.285714q-7.428571 0-12.857143 5.428572T0 475.428571V585.142857q0 7.428571 5.428571 12.857143T18.285714 603.428571h109.714286q7.428571 0 12.857143-5.428571T146.285714 585.142857z m877.714286-438.857143v-109.714285q0-7.428571-5.428571-12.857143t-12.857143-5.428572H237.714286q-7.428571 0-12.857143 5.428572T219.428571 36.571429v109.714285q0 7.428571 5.428572 12.857143t12.857143 5.428572h768q7.428571 0 12.857143-5.428572t5.428571-12.857143zM146.285714 804.571429v-109.714286q0-7.428571-5.428571-12.857143T128 676.571429H18.285714q-7.428571 0-12.857143 5.428571T0 694.857143V804.571429q0 7.428571 5.428571 12.857142T18.285714 822.857143h109.714286q7.428571 0 12.857143-5.428572T146.285714 804.571429z m877.714286-438.857143v-109.714286q0-7.428571-5.428571-12.857143t-12.857143-5.428571H237.714286q-7.428571 0-12.857143 5.428571T219.428571 256V365.714286q0 7.428571 5.428572 12.857143T237.714286 384h768q7.428571 0 12.857143-5.428571t5.428571-12.857143z m0 219.428571v-109.714286q0-7.428571-5.428571-12.857142T1005.714286 457.142857H237.714286q-7.428571 0-12.857143 5.428572T219.428571 475.428571V585.142857q0 7.428571 5.428572 12.857143T237.714286 603.428571h768q7.428571 0 12.857143-5.428571t5.428571-12.857143z m0 219.428572v-109.714286q0-7.428571-5.428571-12.857143T1005.714286 676.571429H237.714286q-7.428571 0-12.857143 5.428571T219.428571 694.857143V804.571429q0 7.428571 5.428572 12.857142T237.714286 822.857143h768q7.428571 0 12.857143-5.428572t5.428571-12.857142z"  horiz-adv-x="1024" />

    
    <glyph glyph-name="chazhao" unicode="&#58925;" d="M932.3-29.234l-30.556-30.537c-8.42-8.442-22.096-8.442-30.536 0l-66.054 66.042c-57.27-30.836-129.947-22.768-178.305 25.579-59.023 59.043-59.023 154.769 0 213.812 59.065 59.033 154.778 59.033 213.82 0 48.34-48.349 56.415-121.036 25.557-178.296l66.075-66.054c8.42-8.44 8.42-22.117 0-30.546z m-137.446 229.08c-33.742 33.732-88.425 33.732-122.19 0-33.72-33.743-33.72-88.437 0-122.179 33.765-33.731 88.45-33.731 122.19 0 33.72 33.742 33.72 88.436 0 122.18z m-515.15 64.74h277.543c-18.783-26.637-30.6-56.608-35.493-87.53h-242.05c-12.075 0-21.882 9.799-21.882 21.883v43.765c0 12.083 9.807 21.881 21.883 21.881z m393.88 262.587H432.878v87.53h240.704c12.073 0 21.882-9.798 21.882-21.883v-43.765c0-12.083-9.81-21.882-21.882-21.882z m21.881-153.176c0-12.084-9.81-21.882-21.882-21.882H279.705c-12.076 0-21.883 9.798-21.883 21.882v43.765c0 12.085 9.807 21.882 21.883 21.882h393.878c12.073 0 21.882-9.797 21.882-21.882v-43.765z m87.53 372H345.35v-175.06H170.294v-525.176h373.279c9.508-17.8 21.689-34.543 36.691-49.544a209.34 209.34 0 0 1 52.012-37.985H126.53c-24.173 0-43.765 19.596-43.765 43.766V611.872l216.19 221.655H826.76c24.167 0 43.764-19.596 43.764-43.765v-492.289c-25.664 23.827-55.73 40.078-87.528 48.658V745.997z"  horiz-adv-x="1024" />

    
    <glyph glyph-name="ad" unicode="&#58887;" d="M1038.577486 444.961503H801.017368v-136.834978h220.456354c12.649634-1.277126 18.351699 5.04769 17.104981 19.004858v117.83012zM0 881.538063v-996.401905l664.267531 166.066579L1328.539928-114.863842V881.538063H0z m652.779475-299.741581H314.493v-273.669957c1.246719-22.80583-10.778947-33.555586-36.109838-32.308867H213.766644v342.087446H413.318262l-3.800971 19.004858H510.242431l3.800971-19.004858h138.736073v-36.108622z m49.412631-45.61166h182.446638v36.109839h-182.446638l17.10498 64.616517h91.223319l-7.601943-26.606801h81.721498v26.606801h98.825262v-26.606801h155.839837v-38.009716H983.464006v-36.109839h155.839837v-36.109838H702.192106v36.109838zM1103.194004 275.817658H702.192106v205.252468h437.111737v-172.944817c1.246719-22.804613-10.780164-33.554369-36.109839-32.307651z"  horiz-adv-x="1328" />

    
    <glyph glyph-name="work-search" unicode="&#58926;" d="M1005.136 31.12c-8.163-9.104-19.961-14.805-33.091-14.805-11.010 0-21.084 4.009-28.842 10.647l-180.691 154.557c-64.336-43.488-152.688-40.8-214.32 11.92-36.959 31.455-60.25 78.014-60.25 130.012 0 43.548 16.336 83.28 43.213 113.403 63.437 71.672 174.221 79.24 247.293 16.728 36.879-31.438 60.114-77.936 60.114-129.86 0-28.157-6.832-54.717-18.929-78.115l181.199-153.673c9.242-7.865 15.066-19.507 15.066-32.509 0-10.885-4.082-20.817-10.799-28.349zM720.88 388.544c-36.544 31.264-91.936 27.472-123.728-8.448-13.363-14.975-21.529-34.837-21.529-56.607 0-26.002 11.651-49.284 30.016-64.909 36.649-31.364 92.041-27.572 123.833 8.348 13.367 14.976 21.536 34.841 21.536 56.615 0 25.998-11.647 49.276-30.007 64.901zM184 656c0 26.51 21.49 48 48 48h384c26.51 0 48-21.49 48-48s-21.49-48-48-48h-384c-26.51 0-48 21.49-48 48zM376 416h-144c-26.51 0-48 21.49-48 48s21.49 48 48 48h144c26.51 0 48-21.49 48-48s-21.49-48-48-48zM792 496c-26.51 0-48 21.49-48 48 0 4.016 0.64 7.856 1.568 11.584-0.976 1.138-1.57 2.629-1.57 4.258 0 0.055 0.001 0.111 0.002 0.166l-0 191.992c0 26.51-21.49 48-48 48h-544c-26.51 0-48-21.49-48-48v-736c0-26.51 21.49-48 48-48h560c26.512 0 32 21.488 32 48v16c0 26.51 21.49 48 48 48s48-21.49 48-48v-112c0-26.51-21.49-48-48-48h-736c-26.51 0-48 21.49-48 48v928c0 26.51 21.49 48 48 48h736c26.51 0 48-21.49 48-48v-288c0-2.832-0.4-4.688-1.104-5.92 0.68-3.030 1.070-6.509 1.070-10.080 0-26.498-21.471-47.981-47.964-48z"  horiz-adv-x="1024" />

    
    <glyph glyph-name="guangbo2" unicode="&#59054;" d="M896 224a32 32 0 0 0-32 32V512a32 32 0 0 0 64 0v-256a32 32 0 0 0-32-32zM704 64a32 32 0 0 0-32 32v576a32 32 0 0 0 64 0v-576a32 32 0 0 0-32-32z m-192-128a32 32 0 0 0-32 32v832a32 32 0 0 0 64 0v-832a32 32 0 0 0-32-32z m-192 128a32 32 0 0 0-32 32v576a32 32 0 0 0 64 0v-576a32 32 0 0 0-32-32z m-192 160a32 32 0 0 0-32 32V512a32 32 0 0 0 64 0v-256a32 32 0 0 0-32-32z"  horiz-adv-x="1024" />

    
    <glyph glyph-name="iconfonticozhuce" unicode="&#58927;" d="M504.003 337.046c155.467 0 281.542 124.74 281.542 278.631 0 153.817-126.075 278.592-281.542 278.592-155.553 0-281.623-124.777-281.623-278.592 0-153.891 126.071-278.631 281.623-278.631zM511.004 310.694c-217.675 0-492.737-174.644-492.737-390.061v-47.643h985.478v47.643c0 215.415-275.067 390.061-492.741 390.061z"  horiz-adv-x="1024" />

    
    <glyph glyph-name="baozhi2" unicode="&#58912;" d="M877.714286 644.047238V774.095238H24.380952v-715.190857c0-35.888762 27.306667-64.999619 60.952381-64.999619h822.857143c50.517333 0 91.428571 43.690667 91.428572 97.523809V644.096l-121.904762-0.048762z m-60.952381-585.142857h-731.428572V709.095619h731.428572v-650.191238zM146.285714 579.047619h609.52381v-64.999619H146.285714V579.047619z m365.714286-130.048h243.809524V384h-243.809524V448.999619z m0-129.999238h243.809524v-64.999619h-243.809524v64.999619z m0-130.048h182.857143v-64.999619H512V188.952381zM146.285714 448.999619h304.761905v-325.095619H146.285714V448.999619z"  horiz-adv-x="1024" />

    
    <glyph glyph-name="jiance2" unicode="&#58895;" d="M512 843.932203c122.731235 0 238.272155-47.852785 325.299758-134.632445S971.932203 506.731235 971.932203 384s-47.852785-238.272155-134.632445-325.299758c-86.779661-86.779661-202.320581-134.632446-325.299758-134.632445s-238.272155 47.852785-325.299758 134.632445C99.920581 145.727845 52.067797 261.268765 52.067797 384s47.852785 238.272155 134.632445 325.299758S389.268765 843.932203 512 843.932203m0 49.588378C230.585956 893.520581 2.479419 665.414044 2.479419 384S230.585956-125.520581 512-125.520581 1021.520581 102.585956 1021.520581 384 793.414044 893.520581 512 893.520581zM74.382567 385.239709h109.094431v-4.958837H74.382567zM208.271186 410.033898H49.588378v-54.547215h158.682808v54.547215zM840.523002 385.239709h109.094431v-4.958837h-109.094431zM974.411622 410.033898h-158.682808v-54.547215h158.682808v54.547215zM508.280872 820.377724h7.438256v-109.094431h-7.438256zM540.513317 845.171913h-57.026634v-158.682809h57.026634v158.682809zM508.280872 54.237288h7.438256v-109.094431h-7.438256zM540.513317 79.031477h-57.026634v-158.682809h57.026634v158.682809z"  horiz-adv-x="1024" />

    
    <glyph glyph-name="dongtai2" unicode="&#58935;" d="M664.106667 771.754667c41.344 0 82.218667-10.730667 118.208-31.018667 54.869333-30.933333 93.866667-80.789333 109.824-140.352 15.594667-58.24 7.189333-119.082667-23.68-171.306667l-119.957334-202.858666a63.914667 63.914667 0 0 1-8.789333-28.650667l-9.834667-159.424-149.568 84.309333a63.893333 63.893333 0 0 1-74.794666-8.661333 101.269333 101.269333 0 0 0-68.842667-26.837333c-28.117333 0-56.149333 12.906667-75.008 34.581333-14.4 16.533333-30.250667 45.781333-23.957333 91.114667a63.957333 63.957333 0 0 1-31.978667 64.533333L184.064 345.813333l134.698667 86.848c8.362667 5.376 15.36 12.650667 20.416 21.226667l119.957333 202.858667c41.962667 70.933333 120.490667 115.008 204.970667 115.008m-0.021334 64c-103.658667 0-204.48-52.501333-260.032-146.453334l-119.957333-202.858666-223.850667-144.32 214.101334-120.618667c-16.448-118.72 70.869333-198.506667 162.368-198.506667a165.013333 165.013333 0 0 1 112.170666 43.754667l238.592-134.506667 16.128 261.418667 119.957334 202.858667c82.816 140.032 33.664 319.082667-109.781334 399.978666a304.448 304.448 0 0 1-149.696 39.253334z"  horiz-adv-x="1024" />

    
    <glyph glyph-name="weifachaxun" unicode="&#58888;" d="M355.756371 274.435505V493.777147h-119.325048v-69.366669h46.404186v-161.116769a21.964115 21.964115 0 0 0-22.103887-26.856123h-19.967378v-62.657631h68.488105a37.938017 37.938017 0 0 1 39.775016 29.092469 105.667362 105.667362 0 0 1 70.704484-29.092469h320.496376v62.617696H426.460855a118.985603 118.985603 0 0 0-70.704484 37.938017m2.196412 402.941679h-86.179202v-85.041061h86.179202v85.041061m386.7082-85.041061v64.893977h-152.470895v26.856123h-79.550032v-26.856123H391.098629v-64.893977h121.541427v-44.766861h-123.79774v-67.130323h121.541427v-49.319422h-123.797741v-64.893977h123.797741v-109.660837h77.393555v109.740706h81.766411v-33.565161c1.457619-10.462906-2.216379-14.935598-11.04196-13.418078H620.923145v-53.712245h86.179201q35.322291-2.256314 33.145847 40.294167v125.215425H587.777298v49.319422h152.470895v67.130323H589.97371v44.766861h154.667306m0 0z m104.149841-455.256208a469.233372 469.233372 0 0 1 101.054898 291.92306 461.525964 461.525964 0 1 1-461.466062-467.436308 455.256207 455.256207 0 0 1 251.888467 75.696328c164.271615-182.521798 151.532428-164.770799 151.532428-164.770799l105.168177 97.84015-148.177908 166.807472z m-360.411164-88.435515a380.358574 380.358574 0 1 0 375.526469 380.31864 377.942522 377.942522 0 0 0-375.526469-380.31864z"  horiz-adv-x="1024" />

    
    <glyph glyph-name="xitong" unicode="&#59165;" d="M409.6 333.824H153.6c-56.32 0-102.4-46.08-102.4-102.4v-204.8c0-56.32 46.08-102.4 102.4-102.4h204.8c56.32 0 102.4 46.08 102.4 102.4V282.624c0 28.16-23.04 51.2-51.2 51.2z m0-307.2c0-28.2624-22.9376-51.2-51.2-51.2H153.6c-28.2624 0-51.2 22.9376-51.2 51.2V231.424c0 28.2624 22.9376 51.2 51.2 51.2h256v-256zM358.4 845.824H153.6C97.28 845.824 51.2 799.744 51.2 743.424v-204.8c0-56.32 46.08-102.4 102.4-102.4h256c28.16 0 51.2 23.04 51.2 51.2V743.424c0 56.32-46.08 102.4-102.4 102.4z m51.2-358.4H153.6c-28.2624 0-51.2 22.9376-51.2 51.2V743.424c0 28.2624 22.9376 51.2 51.2 51.2h204.8c28.2624 0 51.2-22.9376 51.2-51.2v-256zM870.4 845.824H665.6c-56.32 0-102.4-46.08-102.4-102.4v-256c0-28.16 23.04-51.2 51.2-51.2h256c56.32 0 102.4 46.08 102.4 102.4V743.424c0 56.32-46.08 102.4-102.4 102.4z m51.2-307.2c0-28.2624-22.9376-51.2-51.2-51.2H614.4V743.424c0 28.2624 22.9376 51.2 51.2 51.2h204.8c28.2624 0 51.2-22.9376 51.2-51.2v-204.8zM870.4 333.824H614.4c-28.16 0-51.2-23.04-51.2-51.2v-256c0-56.32 46.08-102.4 102.4-102.4h204.8c56.32 0 102.4 46.08 102.4 102.4V231.424c0 56.32-46.08 102.4-102.4 102.4z m51.2-307.2c0-28.2624-22.9376-51.2-51.2-51.2H665.6c-28.2624 0-51.2 22.9376-51.2 51.2V282.624h256c28.2624 0 51.2-22.9376 51.2-51.2v-204.8z"  horiz-adv-x="1024" />

    
    <glyph glyph-name="fenxi" unicode="&#58980;" d="M1211.957064 895.99937c98.462939 0.25 181.320888-73.623955 189.194884-168.686896 7.981995-96.458941-60.773963-180.712889-159.845902-196.675879-22.798986-3.685998-45.275972-3.220998-67.466958 1.753999-8.732995 1.967999-12.025993-0.573-15.85599-7.050996-69.578957-117.324928-139.121914-234.686856-209.381872-351.617784-7.264996-12.097993 1.646999-13.922991 7.695996-18.611988 48.24697-37.294977 70.616957-86.114947 62.670961-145.385911-8.303995-61.955962-44.309973-105.299935-104.475936-127.632921-64.28196-23.837985-136.079916-4.366997-179.745889 47.065971-43.880973 51.682968-49.857969 122.943924-14.244991 180.604889 6.083996 9.842994 6.262996 14.101991-4.009998 21.474987-98.354939 70.831956-196.244879 142.307912-293.992819 213.926868-8.195995 6.012996-14.279991 7.265996-23.943985 2.719998-22.333986-10.449994-46.600971-14.459991-71.153956-10.915993-10.629993 1.538999-14.996991-1.860999-19.756988-9.913994-29.205982-49.714969-58.590964-99.321939-88.512946-148.643909-5.547997-9.161994-5.798996-14.602991 1.574999-23.872985 32.96398-41.409975 37.150977-86.650947 12.347993-133.216918-22.799986-42.769974-73.050955-68.647958-121.906925-62.276962-52.362968 6.835996-88.655945 34.896979-105.084936 84.289949-28.596982 86.149947 48.49797 171.047895 140.124914 154.476905 10.307994-1.861999 15.032991 0.965999 19.899988 9.304994 27.666983 47.388971 55.584966 94.669942 84.217948 141.520913 6.227996 10.164994 6.084996 15.46199-3.506998 23.979985-45.347972 40.086975-58.411964 102.113937-34.324979 155.837904 24.016985 53.579967 79.851951 86.221947 140.661914 82.28495 57.695965-3.757998 108.019934-43.879973 124.447923-99.572939 11.059993-37.473977 6.299996-73.300955-13.994991-106.694935-5.367997-8.804995-3.829998-12.669992 3.972997-18.289988 99.071939-71.725956 197.963878-143.702912 296.749818-215.859868 6.513996-4.759997 11.273993-6.369996 19.255988-2.003998 27.344983 14.996991 57.229965 20.902987 88.369946 17.895989 11.129993-1.073999 15.67599 2.899998 20.794987 11.559993 68.611958 115.965929 137.475915 231.787857 206.768873 347.359786 6.226996 10.379994 6.477996 15.46199-4.116998 23.514985-63.099961 47.95997-87.116946 129.95992-60.916962 203.833875C1060.379158 845.783401 1132.285113 895.78437 1211.957064 895.99837z m0 0"  horiz-adv-x="1402" />

    
    <glyph glyph-name="chuzhi" unicode="&#59020;" d="M512 71.616c172.544 0 312.384 139.84 312.384 312.384S684.544 696.384 512 696.384 199.616 556.544 199.616 384s139.84-312.384 312.384-312.384zM512 32C317.6 32 160 189.6 160 384S317.6 736 512 736s352-157.6 352-352-157.6-352-352-352z m81.792 432L432 302.208l-84 84 161.792 161.792 84-84z m-68.48 124.48a22.048 22.048 0 0 1-31.2-0.128l-186.464-186.464a22.048 22.048 0 0 1-0.128-31.2l108.96-108.96a22.048 22.048 0 0 1 31.2 0.128l186.464 186.464a22.048 22.048 0 0 1 0.128 31.2L525.312 588.48z m29.6-219.392l-28-28 126.08-126.08c7.68-7.68 20.416-7.424 27.904 0.096a19.872 19.872 0 0 1 0.064 27.936l-126.08 126.08z"  horiz-adv-x="1024" />

    
    <glyph glyph-name="xinyong2" unicode="&#58903;" d="M504.428606 827.748848c-171.457939 0-310.954667-139.496727-310.954667-310.954666s139.496727-310.954667 310.954667-310.954667 310.954667 139.481212 310.954667 310.954667S675.886545 827.748848 504.428606 827.748848z m-78.134303-462.196363h-27.927273V547.498667a350.952727 350.952727 0 0 0-27.570424-36.786425c-2.963394 6.578424-11.512242 22.341818-16.446061 29.230546 28.563394 30.875152 54.830545 78.81697 70.950788 126.43297l27.570425-8.207516a644.421818 644.421818 0 0 0-26.577455-62.060606v-230.555151z m206.87903 1.954909h-26.934303v10.860606h-115.26206v-11.822545h-25.956849v106.387393H633.173333v-105.425454z m-3.630545 153.708606v-24.281212H469.628121v24.281212h159.914667z m-159.914667 22.016v24.296727h159.930182v-24.296727H469.628121z m184.894061 46.964364H446.293333v24.948363h96.256c-4.608 11.838061-13.824 29.556364-22.031515 42.682182l26.282667 10.177939c8.859152-13.141333 18.711273-30.859636 23.629576-42.697696l-23.629576-10.17794h107.706182v-24.932848zM928.938667 27.120485L789.969455 267.791515c58.181818 66.668606 93.66497 153.6 93.664969 249.002667C883.634424 726.233212 713.867636 896 504.428606 896 294.989576 896 125.207273 726.233212 125.207273 516.794182c0-100.38303 39.268848-191.363879 102.94303-259.196121L95.076848 27.120485c-21.302303-36.910545-3.475394-48.003879 9.69697-44.295758l134.516364 35.26594 36.693333-134.128485c3.382303-13.249939 21.907394-23.148606 43.240727 13.761939l140.148364 242.750061c14.801455-1.753212 29.773576-2.916848 45.040485-2.916849 20.107636 0 39.703273 2.032485 58.957576 5.026909l141.389575-244.875636c21.317818-36.910545 39.842909-26.996364 43.225213-13.761939l36.693333 134.128485 134.516364-35.26594c13.203394-3.692606 31.030303 7.400727 9.743515 44.311273z m-424.510061 147.704242c-188.571152 0-341.98497 153.429333-341.98497 341.98497 0 188.571152 153.413818 341.98497 341.98497 341.98497s341.98497-153.413818 341.98497-341.98497c0.015515-188.571152-153.413818-341.98497-341.98497-341.98497zM490.961455 448.325818h115.26206v-45.319757h-115.26206z"  horiz-adv-x="1024" />

    
    <glyph glyph-name="shangchuan" unicode="&#58928;" d="M238.234053 167.907668h249.449914v-39.266824H238.234053zM238.234053 306.789223h249.449914v-39.268072H238.234053zM234.695996 448.498729h427.406102v-39.268072H234.695996zM753.307858 134.708582l-71.128063-67.395319-17.866255 18.857161 88.994318 84.324332 88.994318-84.324332-17.866255-18.857161zM740.59581-16.660383h25.976956v121.759104h-25.976956zM753.583664-128c105.338023 0 191.037642 85.707107 191.036394 191.056362 0 105.357991-85.699619 191.072586-191.036394 191.072586-105.333031 0-191.02641-85.714595-191.02641-191.072586 0-105.348007 85.695875-191.056362 191.02641-191.056362z m0.001248 343.214057c83.880047 0 152.122752-68.256433 152.122752-152.156447 0-83.891278-68.241457-152.141472-152.122752-152.141472-83.876303 0-152.112768 68.250193-152.112768 152.141472 0 83.898766 68.236465 152.156448 152.112768 152.156447zM832.097345 668.062975L604.557181 895.603139V896H186.116654C126.397735 896 77.985625 847.58789 77.985625 787.868971v-806.093088C77.985625-77.943036 126.397735-126.355146 186.116654-126.355146H488.575033l0.088608 58.990091H186.116654c-27.108885 0.07488-49.066058 22.032053-49.140937 49.140938V787.868971c0 27.024021 22.116916 49.140938 49.140937 49.140937h374.019495v-90.491908c0-61.780602 50.247907-112.042237 112.012285-112.042237h101.318241v-225.141523h59.431881V668.062975h-0.801211z m-160.168557 12.919214c-35.999581 0-65.286212 29.299111-65.286212 65.311172V809.46797L735.128357 680.982189h-63.199569z"  horiz-adv-x="1024" />

    
    </font>
</defs>
</svg>
